<svg width="36" height="34" viewBox="0 0 36 34" fill="none" xmlns="http://www.w3.org/2000/svg">
<path d="M21.9375 28.1542C22.0867 28.1542 22.2298 28.0989 22.3352 28.0003C22.4407 27.9018 22.5 27.7682 22.5 27.6289C22.5 26.6238 20.25 27.1175 20.25 28.6796C20.25 30.2398 22.5 30.7386 22.5 29.7303C22.5 29.5909 22.4407 29.4573 22.3352 29.3588C22.2298 29.2603 22.0867 29.2049 21.9375 29.2049C21.7883 29.2049 21.6452 29.1496 21.5398 29.051C21.4343 28.9525 21.375 28.8189 21.375 28.6796C21.375 28.5402 21.4343 28.4066 21.5398 28.3081C21.6452 28.2096 21.7883 28.1542 21.9375 28.1542Z" fill="#424242"/>
<path d="M21.9375 25.0021C21.9375 24.6904 21.8385 24.3857 21.6531 24.1265C21.4677 23.8673 21.2041 23.6653 20.8958 23.546C20.5874 23.4268 20.2481 23.3956 19.9208 23.4564C19.5934 23.5172 19.2928 23.6673 19.0568 23.8877C18.8208 24.1081 18.66 24.3889 18.5949 24.6947C18.5298 25.0004 18.5632 25.3173 18.691 25.6052C18.8187 25.8932 19.035 26.1394 19.3125 26.3126C19.59 26.4857 19.9162 26.5782 20.25 26.5782C20.6974 26.5777 21.1263 26.4115 21.4427 26.116C21.759 25.8206 21.937 25.42 21.9375 25.0021ZM19.6875 25.0021C19.6875 24.8982 19.7205 24.7966 19.7823 24.7103C19.8441 24.6239 19.932 24.5565 20.0347 24.5168C20.1375 24.477 20.2506 24.4666 20.3597 24.4869C20.4689 24.5071 20.5691 24.5572 20.6477 24.6306C20.7264 24.7041 20.78 24.7977 20.8017 24.8996C20.8234 25.0015 20.8123 25.1072 20.7697 25.2032C20.7271 25.2992 20.655 25.3812 20.5625 25.4389C20.47 25.4967 20.3613 25.5275 20.25 25.5275C20.1009 25.5273 19.9579 25.4719 19.8524 25.3734C19.747 25.2749 19.6877 25.1414 19.6875 25.0021Z" fill="#424242"/>
<path d="M17.4375 28.6796C17.1037 28.6796 16.7775 28.772 16.5 28.9452C16.2225 29.1184 16.0062 29.3645 15.8785 29.6525C15.7507 29.9405 15.7173 30.2574 15.7824 30.5631C15.8475 30.8688 16.0083 31.1496 16.2443 31.37C16.4803 31.5905 16.7809 31.7406 17.1083 31.8014C17.4356 31.8622 17.7749 31.831 18.0833 31.7117C18.3916 31.5924 18.6552 31.3904 18.8406 31.1312C19.026 30.872 19.125 30.5673 19.125 30.2556C19.1245 29.8378 18.9465 29.4372 18.6302 29.1417C18.3138 28.8462 17.8849 28.68 17.4375 28.6796ZM17.4375 30.781C17.3262 30.781 17.2175 30.7501 17.125 30.6924C17.0325 30.6347 16.9604 30.5526 16.9178 30.4567C16.8752 30.3607 16.8641 30.255 16.8858 30.1531C16.9075 30.0512 16.9611 29.9576 17.0398 29.8841C17.1184 29.8107 17.2186 29.7606 17.3278 29.7404C17.4369 29.7201 17.55 29.7305 17.6528 29.7703C17.7555 29.81 17.8434 29.8774 17.9052 29.9637C17.967 30.0501 18 30.1517 18 30.2556C17.9998 30.3949 17.9405 30.5284 17.8351 30.6269C17.7296 30.7254 17.5866 30.7808 17.4375 30.781Z" fill="#424242"/>
<path d="M22.6481 32.4292C19.527 33.4147 16.017 32.7445 13.5989 30.7265L14.0332 29.6726C15.5353 29.3358 16.2046 27.6096 15.3626 26.4483L16.8483 22.8444C19.2773 23.5452 20.7226 19.9132 18.4686 18.9137L19.6875 15.9572L21.3422 19.9709C21.6098 20.6199 22.6595 20.2417 22.3921 19.5933L20.5068 15.0205H23.2388L23.8726 16.5579C22.1793 17.8801 23.3561 20.843 25.9134 20.1975C25.9852 20.18 26.0526 20.1493 26.1117 20.1073C26.1707 20.0653 26.2203 20.0128 26.2575 19.9528C26.2948 19.8929 26.3189 19.8266 26.3286 19.7579C26.3383 19.6891 26.3333 19.6193 26.314 19.5523C26.2946 19.4854 26.2613 19.4227 26.2158 19.3679C26.1704 19.313 26.1138 19.2671 26.0493 19.2328C25.9848 19.1985 25.9137 19.1765 25.84 19.1679C25.7663 19.1594 25.6916 19.1646 25.62 19.1832C24.132 19.5586 23.7543 17.7284 24.8124 17.2315C24.9371 17.1729 25.034 17.0731 25.0843 16.9514C25.1346 16.8298 25.1347 16.695 25.0845 16.5734L24.1499 14.3063C24.1091 14.2073 24.0371 14.1221 23.9434 14.062C23.8497 14.0019 23.7387 13.9698 23.625 13.9698C19.5827 13.9718 19.3521 13.8464 19.1625 14.3063C17.2228 19.2033 17.0023 19.1199 17.2405 19.508C17.282 19.5757 17.3391 19.6339 17.4078 19.6784C17.4764 19.723 17.5548 19.7526 17.6372 19.7653C18.8541 19.9523 18.5543 21.3093 17.9015 21.739C17.593 21.9422 17.2365 21.9257 16.8416 21.6903C16.7713 21.6483 16.6919 21.6216 16.6092 21.6118C16.5265 21.6021 16.4425 21.6097 16.3633 21.634C16.284 21.6583 16.2116 21.6988 16.1512 21.7524C16.0908 21.8061 16.0439 21.8717 16.0139 21.9443L14.1964 26.3533C14.1578 26.4469 14.1487 26.5489 14.1702 26.6472C14.1917 26.7455 14.2429 26.836 14.3177 26.908C14.922 27.4893 14.5153 28.6236 13.591 28.676C13.4834 28.6821 13.3798 28.7169 13.2928 28.7765C13.2058 28.836 13.1389 28.9176 13.1001 29.0117L12.4125 30.6802C12.373 30.7763 12.3645 30.881 12.3881 30.9815C12.4117 31.082 12.4664 31.1738 12.5454 31.2456C15.3508 33.7935 19.4318 34.5541 23.0085 33.4247C23.1498 33.3801 23.2664 33.2848 23.3325 33.16C23.3987 33.0351 23.409 32.8908 23.3612 32.7588C23.3134 32.6268 23.2114 32.5179 23.0777 32.4561C22.944 32.3944 22.7895 32.3847 22.6481 32.4294V32.4292Z" fill="#424242"/>
<path d="M35.4375 21.3247C34.9112 21.3247 24.5379 21.3247 23.0625 21.3247C22.9133 21.3247 22.7702 21.38 22.6648 21.4785C22.5593 21.5771 22.5 21.7107 22.5 21.85C22.5 21.9894 22.5593 22.123 22.6648 22.2215C22.7702 22.32 22.9133 22.3754 23.0625 22.3754H23.6742L24.7527 33.4552C24.7654 33.5858 24.8298 33.7071 24.9334 33.7955C25.037 33.8839 25.1722 33.933 25.3125 33.9331H33.1875C33.3279 33.933 33.4632 33.884 33.5668 33.7956C33.6705 33.7072 33.735 33.5858 33.7477 33.4552L34.1569 29.2479C34.1646 29.1787 34.1576 29.1087 34.1361 29.0421C34.1147 28.9754 34.0792 28.9134 34.0319 28.8597C33.9846 28.806 33.9263 28.7615 33.8605 28.729C33.7946 28.6964 33.7225 28.6765 33.6483 28.6702C33.5741 28.6639 33.4993 28.6714 33.4283 28.6923C33.3572 28.7133 33.2913 28.7472 33.2344 28.7921C33.1775 28.837 33.1307 28.892 33.0968 28.9539C33.0628 29.0158 33.0424 29.0835 33.0366 29.1528L32.6737 32.8824H25.8262L24.8034 22.3754H33.6966L33.4444 24.9684C33.4319 25.1066 33.4785 25.2439 33.5739 25.3501C33.6694 25.4564 33.806 25.5231 33.954 25.5357C34.1019 25.5482 34.2491 25.5056 34.3636 25.4172C34.478 25.3287 34.5503 25.2015 34.5647 25.0635L34.8262 22.3754H35.4375C35.5867 22.3754 35.7298 22.32 35.8352 22.2215C35.9407 22.123 36 21.9894 36 21.85C36 21.7107 35.9407 21.5771 35.8352 21.4785C35.7298 21.38 35.5867 21.3247 35.4375 21.3247Z" fill="#424242"/>
<path d="M19.688 12.9084C19.7603 12.9222 19.8349 12.9226 19.9074 12.9095C19.98 12.8965 20.049 12.8702 20.1107 12.8322C20.1723 12.7941 20.2254 12.7452 20.2667 12.688C20.3081 12.6309 20.337 12.5667 20.3519 12.4991C20.5996 11.3655 21.2839 10.356 22.2751 9.66193C22.2963 9.64703 22.3165 9.63072 22.3353 9.61314C23.0822 8.91522 23.1921 7.60729 21.75 6.48114C21.4874 6.27613 21.3926 5.92953 21.4687 5.7341C21.4869 5.68741 21.5333 5.56336 21.8554 5.56421C28.6675 5.68531 29.0092 5.37778 29.1521 5.74244C29.2276 5.93491 29.1431 6.27199 28.8753 6.48114C28.1636 7.0369 27.7873 7.64039 27.7573 8.27468C27.7273 8.90228 28.0929 9.48154 28.3503 9.66187C28.9775 10.1036 29.4868 10.6749 29.8381 11.3312C30.1893 11.9874 30.3731 12.7108 30.3751 13.4444C30.3751 13.5838 30.4343 13.7174 30.5398 13.8159C30.6453 13.9144 30.7884 13.9698 30.9376 13.9698C31.0867 13.9698 31.2298 13.9144 31.3353 13.8159C31.4408 13.7174 31.5001 13.5838 31.5001 13.4444C31.4977 12.5569 31.2776 11.6816 30.8566 10.8859C30.4356 10.0902 29.825 9.39516 29.0715 8.85421C28.6119 8.3219 29.0375 7.72386 29.5968 7.28709C30.615 6.49211 30.5554 4.90162 29.2501 4.57019V0.836071C29.2501 0.69674 29.1908 0.563116 29.0853 0.464593C28.9798 0.366071 28.8367 0.310722 28.6876 0.310722H21.9376C21.7884 0.310722 21.6453 0.366071 21.5398 0.464593C21.4343 0.563116 21.3751 0.69674 21.3751 0.836071V4.56979C20.0564 4.89814 20.0082 6.4906 21.0283 7.28716C21.5951 7.7297 22.0098 8.32545 21.5536 8.85421C20.3668 9.70167 19.5485 10.9216 19.2496 12.2887C19.2198 12.4251 19.2492 12.5671 19.3314 12.6833C19.4136 12.7995 19.5419 12.8805 19.688 12.9084ZM22.5001 1.36142H28.1251V2.41212H24.1876C24.0384 2.41212 23.8953 2.46747 23.7898 2.56599C23.6843 2.66451 23.6251 2.79814 23.6251 2.93747C23.6251 3.0768 23.6843 3.21042 23.7898 3.30894C23.8953 3.40747 24.0384 3.46282 24.1876 3.46282H28.1251V4.51351H22.5001V1.36142Z" fill="#424242"/>
<path d="M6.1875 25.0021C6.1875 24.8628 6.12824 24.7292 6.02275 24.6306C5.91726 24.5321 5.77418 24.4768 5.625 24.4768C5.02847 24.4761 4.45656 24.2545 4.03475 23.8606C3.61294 23.4666 3.37567 22.9325 3.375 22.3754C3.375 21.5759 4.61721 19.7633 5.625 18.5059C6.63279 19.7627 7.875 21.5749 7.875 22.3754C7.875 22.5147 7.93426 22.6483 8.03975 22.7469C8.14524 22.8454 8.28832 22.9007 8.4375 22.9007C8.58668 22.9007 8.72976 22.8454 8.83525 22.7469C8.94074 22.6483 9 22.5147 9 22.3754C9 20.7862 6.36448 17.6689 6.06396 17.3189C6.01126 17.2575 5.94445 17.2079 5.86847 17.1738C5.79249 17.1397 5.70928 17.122 5.625 17.122C5.54072 17.122 5.45751 17.1397 5.38153 17.1738C5.30555 17.2079 5.23874 17.2575 5.18604 17.3189C4.88552 17.6689 2.25 20.7862 2.25 22.3754C2.25 25.2719 6.1875 26.2704 6.1875 25.0021Z" fill="#424242"/>
<path d="M12.9375 32.8824H11.25V9.38718L14.0696 4.99887L16.8988 9.38764V14.4951C16.8988 14.6345 16.9581 14.7681 17.0635 14.8666C17.169 14.9651 17.3121 15.0205 17.4613 15.0205C17.6105 15.0205 17.7536 14.9651 17.859 14.8666C17.9645 14.7681 18.0238 14.6345 18.0238 14.4951V9.24165C18.0238 8.97425 18.0509 9.18846 14.6254 3.82399V0.836071C14.6254 0.69674 14.5661 0.563116 14.4606 0.464593C14.3551 0.366071 14.2121 0.310722 14.0629 0.310722H3.93751C3.78832 0.310722 3.64525 0.366071 3.53976 0.464593C3.43427 0.563116 3.37501 0.69674 3.37501 0.836071V3.84271L2.925 4.54339C2.88608 4.60257 2.8601 4.66838 2.84858 4.737C2.83705 4.80562 2.84022 4.87569 2.85788 4.94316C2.87554 5.01063 2.90736 5.07416 2.95148 5.13007C2.9956 5.18599 3.05116 5.23317 3.11493 5.2689C3.17871 5.30463 3.24944 5.32819 3.32303 5.33823C3.39662 5.34826 3.47161 5.34457 3.54366 5.32736C3.61571 5.31015 3.68339 5.27976 3.74279 5.23797C3.80218 5.19617 3.85212 5.14378 3.88969 5.08385L4.25602 4.51351H13.0691L10.3691 8.7163H8.43751C8.28833 8.7163 8.14526 8.77165 8.03977 8.87018C7.93428 8.9687 7.87501 9.10232 7.87501 9.24165C7.87501 9.38099 7.93428 9.51461 8.03977 9.61313C8.14526 9.71165 8.28833 9.767 8.43751 9.767H10.125V13.9698H1.125V9.767H6.18751C6.3367 9.767 6.47977 9.71165 6.58526 9.61313C6.69075 9.51461 6.75001 9.38099 6.75001 9.24165C6.75001 9.10232 6.69075 8.9687 6.58526 8.87018C6.47977 8.77165 6.3367 8.7163 6.18751 8.7163H1.55588L1.575 8.68643C1.64986 8.56702 1.67126 8.42486 1.63456 8.2908C1.59785 8.15675 1.506 8.04163 1.37895 7.97046C1.2519 7.89928 1.09991 7.87779 0.956 7.91065C0.812086 7.94351 0.687865 8.02808 0.610314 8.14597C0.0523829 9.01556 0 9.0478 0 9.24165V33.4077C0 33.547 0.0592633 33.6807 0.164753 33.7792C0.270242 33.8777 0.413316 33.9331 0.562501 33.9331H12.9375C13.0867 33.9331 13.2298 33.8777 13.3353 33.7792C13.4408 33.6807 13.5 33.547 13.5 33.4077C13.5 33.2684 13.4408 33.1347 13.3353 33.0362C13.2298 32.9377 13.0867 32.8824 12.9375 32.8824ZM4.50001 3.46282V1.36142H13.5V3.46282H4.50001ZM10.125 32.8824H1.125V28.6796H10.125V32.8824ZM10.125 27.6289H1.125V15.0205H10.125V27.6289Z" fill="#424242"/>
<path d="M2.25 7.14025C2.56066 7.14025 2.8125 6.90504 2.8125 6.6149C2.8125 6.32476 2.56066 6.08955 2.25 6.08955C1.93934 6.08955 1.6875 6.32476 1.6875 6.6149C1.6875 6.90504 1.93934 7.14025 2.25 7.14025Z" fill="#424242"/>
<path d="M7.875 25.0021C8.18566 25.0021 8.4375 24.7669 8.4375 24.4768C8.4375 24.1866 8.18566 23.9514 7.875 23.9514C7.56434 23.9514 7.3125 24.1866 7.3125 24.4768C7.3125 24.7669 7.56434 25.0021 7.875 25.0021Z" fill="#424242"/>
<path d="M30.9375 16.0712C31.2482 16.0712 31.5 15.836 31.5 15.5458C31.5 15.2557 31.2482 15.0205 30.9375 15.0205C30.6268 15.0205 30.375 15.2557 30.375 15.5458C30.375 15.836 30.6268 16.0712 30.9375 16.0712Z" fill="#424242"/>
<path d="M33.75 27.6289C34.0607 27.6289 34.3125 27.3937 34.3125 27.1035C34.3125 26.8134 34.0607 26.5782 33.75 26.5782C33.4393 26.5782 33.1875 26.8134 33.1875 27.1035C33.1875 27.3937 33.4393 27.6289 33.75 27.6289Z" fill="#424242"/>
<path d="M30.9375 17.1219C30.7883 17.1219 30.6452 17.1772 30.5398 17.2758C30.4343 17.3743 30.375 17.5079 30.375 17.6472V19.7486C30.375 19.888 30.4343 20.0216 30.5398 20.1201C30.6452 20.2186 30.7883 20.274 30.9375 20.274C31.0867 20.274 31.2298 20.2186 31.3352 20.1201C31.4407 20.0216 31.5 19.888 31.5 19.7486V17.6472C31.5 17.5079 31.4407 17.3743 31.3352 17.2758C31.2298 17.1772 31.0867 17.1219 30.9375 17.1219Z" fill="#424242"/>
</svg>
