<svg width="37" height="34" viewBox="0 0 37 34" fill="none" xmlns="http://www.w3.org/2000/svg">
<path d="M1.76363 15.0791C1.63046 15.5102 1.52072 16.2033 1.86661 16.8646C2.1971 17.4959 2.84389 17.9365 3.79044 18.1772C4.79761 21.3879 6.25717 24.0055 8.13188 25.9608C10.6106 28.5471 13.769 29.9185 17.5246 30.0441L18.4864 32.4397L16.1749 32.8714C16.0975 32.8859 16.0239 32.9144 15.9584 32.9555C15.8928 32.9965 15.8365 33.0491 15.7927 33.1105C15.749 33.1718 15.7185 33.2406 15.7032 33.3129C15.6879 33.3852 15.688 33.4596 15.7035 33.5318C15.719 33.6041 15.7495 33.6728 15.7934 33.7341C15.8373 33.7953 15.8937 33.8479 15.9594 33.8887C16.0251 33.9296 16.0987 33.958 16.1761 33.9723C16.2535 33.9866 16.3332 33.9866 16.4106 33.9721L21.9694 32.9339L22.3651 33.6729C22.4 33.7394 22.4487 33.7988 22.5083 33.8477C22.5679 33.8965 22.6373 33.9339 22.7124 33.9576C22.7876 33.9812 22.867 33.9908 22.9461 33.9857C23.0252 33.9806 23.1025 33.9609 23.1734 33.9278C23.2443 33.8946 23.3075 33.8487 23.3594 33.7927C23.4112 33.7366 23.4506 33.6716 23.4754 33.6012C23.5002 33.5308 23.5098 33.4566 23.5037 33.3827C23.4977 33.3089 23.476 33.2369 23.44 33.1709L22.8391 32.0485C22.7801 31.9384 22.684 31.8495 22.5656 31.7954C22.4472 31.7414 22.313 31.7251 22.1838 31.7492L19.6803 32.2167L18.7965 30.016C21.1574 29.7841 23.4278 29.0408 25.4269 27.8452C27.5669 26.5621 29.2935 24.7983 30.5589 22.603C32.0588 20.0004 32.9065 16.7851 33.0819 13.0392C33.1514 13.0239 33.2207 13.0065 33.2897 12.9848C33.549 12.9079 33.7844 12.7732 33.9756 12.5923C34.1667 12.4114 34.3078 12.1898 34.3868 11.9466C34.5618 11.421 34.4623 10.7779 34.145 10.3827L33.7186 9.8512H35.5212C35.6101 9.8512 35.6979 9.83278 35.7783 9.79726C35.8587 9.76174 35.9296 9.71001 35.986 9.6458C36.0423 9.58158 36.0827 9.50649 36.1043 9.42593C36.1258 9.34537 36.1279 9.26135 36.1105 9.17992C35.7399 7.44931 34.5686 6.8075 33.6513 6.5739C33.4645 6.52671 33.2743 6.4921 33.0821 6.47036C33.0613 6.35924 33.0346 6.24419 33.0002 6.12662C33.5727 5.83235 34.0004 5.34187 34.193 4.75869C34.2831 4.50756 34.3074 4.23991 34.2637 3.97822C34.2201 3.71653 34.1098 3.46845 33.9422 3.2548C33.7745 3.03864 33.5543 2.86261 33.2998 2.74108C33.0453 2.61956 32.7636 2.55598 32.4777 2.55554H32.4138C32.2891 2.22751 32.0589 1.94354 31.7545 1.74259C31.4502 1.54163 31.0868 1.43354 30.7141 1.43313H30.6111C30.4865 1.1051 30.2562 0.821133 29.9519 0.620179C29.6476 0.419224 29.2841 0.311129 28.9114 0.310722H27.7097C27.5503 0.310722 27.3975 0.369849 27.2848 0.475095C27.1721 0.580341 27.1088 0.723086 27.1088 0.871927V4.06258C25.2208 4.95763 24.461 7.22764 23.9193 8.84685C23.7307 9.41051 23.4798 10.1608 23.2864 10.4123H5.5856L0.88055 8.76456C0.796392 8.73509 0.706227 8.72363 0.616697 8.73102C0.527167 8.73841 0.440552 8.76446 0.363232 8.80726C0.285912 8.85006 0.219857 8.90851 0.169931 8.97831C0.120005 9.04811 0.0874815 9.12748 0.0747549 9.21058C0.0493672 9.37642 -0.492336 13.1184 1.76363 15.0791ZM33.2394 11.6131C33.2168 11.6868 33.1743 11.7538 33.116 11.8077C33.0577 11.8616 32.9855 11.9007 32.9065 11.9211C32.6482 11.9997 32.3678 11.9844 32.1211 11.8783C32.0372 11.846 31.9624 11.7961 31.9025 11.7324C31.8426 11.6688 31.7992 11.5931 31.7756 11.5112C31.751 11.4284 31.7472 11.3415 31.7644 11.2571C31.7816 11.1726 31.8193 11.0931 31.8747 11.0245L32.5168 10.2253L33.1837 11.0558C33.2432 11.1299 33.3148 11.3866 33.2394 11.6131ZM33.3698 7.66587C33.6639 7.73729 33.9368 7.87004 34.1681 8.05414C34.3994 8.23824 34.5829 8.4689 34.705 8.72879H32.5168V7.56085C32.805 7.55893 33.092 7.59427 33.3698 7.66587ZM28.3106 1.43313H28.9114C29.0708 1.4333 29.2235 1.49248 29.3361 1.59769C29.4488 1.7029 29.5122 1.84555 29.5123 1.99434C29.5123 2.14318 29.5756 2.28592 29.6883 2.39117C29.801 2.49641 29.9539 2.55554 30.1132 2.55554H30.7141C30.8734 2.55571 31.0262 2.61489 31.1388 2.7201C31.2515 2.82531 31.3148 2.96795 31.315 3.11674C31.315 3.26558 31.3783 3.40833 31.491 3.51358C31.6037 3.61882 31.7565 3.67795 31.9159 3.67795H32.4777C32.5736 3.67754 32.6683 3.69864 32.7536 3.73948C32.839 3.78031 32.9126 3.83968 32.9684 3.9126C33.0236 3.98272 33.06 4.06419 33.0746 4.15017C33.0891 4.23615 33.0814 4.32414 33.052 4.40674C32.9595 4.69422 32.7596 4.94114 32.4886 5.10257C32.4349 5.03164 32.3781 4.96142 32.3159 4.89267C31.5826 4.08665 30.4371 3.67795 28.9114 3.67795C28.7105 3.67766 28.5097 3.6902 28.3106 3.71548V1.43313ZM25.0664 9.18161C25.8683 6.78456 26.7112 4.80036 28.9114 4.80036C30.0971 4.80036 31.5017 5.10902 31.8597 6.48481C31.8246 6.49007 31.8032 6.49393 31.798 6.49484C31.6618 6.52029 31.5393 6.58903 31.4512 6.68936C31.3631 6.7897 31.315 6.91543 31.315 7.04517V9.28999C31.3151 9.42713 31.3691 9.55947 31.4669 9.66179L30.9136 10.3507C30.7488 10.5557 30.6363 10.793 30.5846 11.0448C30.533 11.2965 30.5436 11.5559 30.6156 11.8032C30.6876 12.0505 30.8191 12.2792 31.0002 12.4719C31.1812 12.6645 31.407 12.8159 31.6602 12.9147C31.7336 12.9431 31.8069 12.968 31.8801 12.9896C31.7135 16.5485 30.9213 19.5915 29.5198 22.0377C28.3601 24.0618 26.781 25.688 24.8264 26.8711C21.4769 28.8988 18.1279 28.9321 18.0954 28.9321C10.4169 28.9321 6.8118 23.3994 5.12254 18.4089L7.6079 18.7958C8.40761 19.4566 12.4376 22.572 17.311 22.5719C17.4916 22.5719 17.6735 22.5676 17.8566 22.5588C20.8191 22.4154 23.4783 21.0959 25.7601 18.6368C27.8749 16.3581 28.5794 14.4503 27.8539 12.9664C27.4059 12.0501 26.4461 11.3631 25.001 10.9244C24.8168 10.8683 24.6308 10.8188 24.4444 10.774C24.6695 10.3667 24.8515 9.82377 25.0664 9.18161ZM21.0999 11.5348C24.5895 11.5348 26.3121 12.5152 26.7607 13.4327C27.2661 14.4663 26.606 16.0117 24.852 17.9017C22.794 20.1191 20.4222 21.3088 17.8015 21.4373C13.7084 21.6391 10.0462 19.2011 8.77055 18.2398C10.219 16.9271 14.7258 12.9477 17.6396 11.5346L21.0999 11.5348ZM6.01749 11.5348H15.3463C12.4996 13.3648 9.19703 16.286 7.95461 17.4143C7.24354 16.4364 5.82333 14.1294 6.01749 11.5348ZM1.20969 10.0786L4.82743 11.3454C4.5924 13.9269 5.73259 16.2022 6.577 17.4976L4.38292 17.1561C3.6306 17.0136 3.14824 16.7518 2.94919 16.3771C2.66174 15.8362 3.0077 15.1569 3.00928 15.1531C3.07228 15.0356 3.08912 14.9011 3.05687 14.7732C3.02461 14.6453 2.9453 14.532 2.83277 14.4531C1.31665 13.3911 1.17281 11.2069 1.20969 10.0786Z" fill="#424242"/>
<path d="M29.5123 7.60638C29.8441 7.60638 30.1132 7.35512 30.1132 7.04517C30.1132 6.73523 29.8441 6.48397 29.5123 6.48397C29.1804 6.48397 28.9114 6.73523 28.9114 7.04517C28.9114 7.35512 29.1804 7.60638 29.5123 7.60638Z" fill="#424242"/>
</svg>
