<svg id="Layer_1" height="512" viewBox="0 0 128 128" width="512" xmlns="http://www.w3.org/2000/svg" data-name="Layer 1"><path d="m82.2 46.864c-10.67-15.564-32.9-1.778-32.9-1.778s-22.235-13.786-32.907 1.778 10.227 60.472 32.9 50.69c22.682 9.783 43.58-35.127 32.907-50.69z" fill="#fc642b"/><circle cx="85.964" cy="83.162" fill="#fd9025" r="28.513"/><path d="m63.006 18a1.754 1.754 0 0 0 -2.315-.876c-6.4 2.888-10.7 8.711-12.436 16.842a38.88 38.88 0 0 0 -.7 11.313 1.75 1.75 0 0 0 1.745 1.557 1.975 1.975 0 0 0 .2-.011 1.751 1.751 0 0 0 1.542-1.937c-.021-.186-1.96-18.684 11.093-24.569a1.752 1.752 0 0 0 .871-2.319z" fill="#475a61"/><path d="m49.066 21.445a8.227 8.227 0 0 1 -11.634 11.635c-3.213-3.213-5.119-16.754-5.119-16.754s13.541 1.906 16.753 5.119z" fill="#83e685"/><path d="m20.093 63.3a1.751 1.751 0 0 1 -1.744-1.629c-.332-4.812.531-8.871 2.5-11.737a15.612 15.612 0 0 1 3.338-3.567 1.75 1.75 0 0 1 2.133 2.775 12.123 12.123 0 0 0 -2.584 2.771c-1.516 2.209-2.169 5.5-1.892 9.516a1.75 1.75 0 0 1 -1.625 1.867c-.044.004-.085.004-.126.004z" fill="#fff5f5"/><path d="m106.281 64.391a9.168 9.168 0 1 1 -13.516-12.391c3.421-3.732 18.4-6.51 18.4-6.51s-1.465 15.169-4.884 18.901z" fill="#83e685"/><path d="m67.541 74.347a1.75 1.75 0 0 1 -1.515-2.622 23.013 23.013 0 0 1 9.395-8.989 1.75 1.75 0 1 1 1.607 3.109 19.529 19.529 0 0 0 -7.969 7.624 1.747 1.747 0 0 1 -1.518.878z" fill="#fff5f5"/><path d="m90.376 75.442h-.009a1.749 1.749 0 0 1 -1.741-1.756c0-.665.2-16.343 12.555-20.259a1.75 1.75 0 1 1 1.059 3.336c-9.908 3.142-10.112 16.8-10.113 16.938a1.751 1.751 0 0 1 -1.751 1.741z" fill="#475a61"/></svg>