<svg height="512" viewBox="0 0 512 512" width="512" xmlns="http://www.w3.org/2000/svg"><g id="Flat"><path d="m88 152-19.2 25.6a24 24 0 0 0 -4.8 14.4 24 24 0 0 0 24 24 24 24 0 0 0 24-24v-40z" fill="#f35244"/><path d="m128 114.678-31.084 1.434-9.06.861a35.184 35.184 0 0 0 -31.856 35.027h72z" fill="#ffb531"/><path d="m200 103.85 18.069-18.709a21.424 21.424 0 0 0 5.2-9c3.705-13.721-7.167-28.584-22.587-26.873a20.933 20.933 0 0 1 -21.477-12.648c-7.276-16.829-31.14-16.829-38.416 0a20.933 20.933 0 0 1 -21.474 12.65c-15.415-1.711-26.292 13.152-22.587 26.873a21.424 21.424 0 0 0 5.2 9l18.072 18.707z" fill="#f35244"/><path d="m392 216h64a64 64 0 0 1 -64 64h64a64 64 0 0 1 -64 64h-16l-30.07 34.36a86.771 86.771 0 0 1 -65.31 29.64h-129.83a86.787 86.787 0 0 1 -80.1-120.2c9.88-23.67 28.24-66.55 37.76-82.03a23.96 23.96 0 0 0 3.55-12.55v-78.14a43.078 43.078 0 0 1 82.95-16.31l61.05 149.23 55.87-111.74a87.315 87.315 0 0 1 78.09-48.26h66.04a63.948 63.948 0 0 1 -64 64h64a64 64 0 0 1 -64 64z" fill="#e0e0de"/><circle cx="160" cy="120" fill="#a3a3a1" r="16"/><path d="m232 456h-16l8-48h-32l-8 48h-16a16 16 0 0 0 -16 16v16h96v-16a16 16 0 0 0 -16-16z" fill="#f79d16"/><path d="m296 456h-16l8-48h-32l-8 48h-16a16 16 0 0 0 -16 16v16h96v-16a16 16 0 0 0 -16-16z" fill="#ffb531"/><path d="m392 216h64a64 64 0 0 1 -64 64h64a64 64 0 0 1 -64 64h-16l-30.07 34.36a86.771 86.771 0 0 1 -65.31 29.64h-129.83a86.829 86.829 0 0 1 -84.63-67.48c111.42-18.83 256.96-66.97 343.36-188.52h46.48a64 64 0 0 1 -64 64z" fill="#dbdbd9"/><path d="m411.69 148.91a369.589 369.589 0 0 0 34.3-60.91h10.01a64.018 64.018 0 0 1 -44.31 60.91z" fill="#dbdbd9"/><path d="m352 248h-152a80 80 0 0 0 -80 80 80 80 0 0 0 80 80h72a48 48 0 0 0 48-48h-32a48 48 0 0 0 48-48v-8h-40a56 56 0 0 0 56-56z" fill="#ebebe9"/><g fill="#dbdbd9"><path d="m264 312h72a8 8 0 0 0 0-16h-72a8 8 0 0 0 0 16z"/><path d="m328 352h-64a8 8 0 0 0 0 16h64a8 8 0 0 0 0-16z"/></g></g></svg>