<svg xmlns="http://www.w3.org/2000/svg" viewBox="0 0 412.75 155.33"><defs><style>.cls-1,.cls-5{fill:#1d1d1b;}.cls-1,.cls-6,.cls-7{stroke:#1d1d1b;}.cls-2,.cls-4{fill:#4ead33;}.cls-3{fill:#e32321;}.cls-4{stroke:#4ead33;stroke-width:1.5px;}.cls-6{fill:#fff;}.cls-6,.cls-7{stroke-width:3px;}.cls-7{fill:none;}</style></defs><title>Recurso 2</title><g id="Capa_2" data-name="Capa 2"><g id="Layer_1" data-name="Layer 1"><path class="cls-1" d="M45.46,59a76.89,76.89,0,0,0-12.6,10.16,42,42,0,0,0-9.67,17.14l28.89.08a52.25,52.25,0,0,1,0,9l-30.44-.09q-.64,1.4.21,7.62a42.71,42.71,0,0,0,2.49,10.52l5,12-8.14,3.41-4.62-11a49.8,49.8,0,0,1-1.32-35.44q6.37-20.14,26-30.77A25.45,25.45,0,0,0,43,54.68C44.06,56.5,44.9,58,45.46,59Z" transform="translate(-1.75)"/><path class="cls-1" d="M88.48,70.47l-1.22.32q-5.74,1.5-10,8.58T73.61,92.9a27.91,27.91,0,0,0,1.64,5c1.13,2.81,1.7,4.26,1.73,4.36l2.16,8.26-8.73,2.29-2.94-11.23a76.54,76.54,0,0,0-6.7-16.86,40.35,40.35,0,0,0-5-7.66,56.31,56.31,0,0,1,5.38-6.88,15.26,15.26,0,0,1,3.56,4.22,45.2,45.2,0,0,0,2.94,4.37c1.06-3.21,3.32-6.51,6.75-9.9s6.56-5.46,9.36-6.2L86.25,62Z" transform="translate(-1.75)"/><path class="cls-1" d="M141.34,93.1q-.6,2.79-1.78,8.91a26.93,26.93,0,0,1-11.45-5.3,16.9,16.9,0,0,1-8.85,4.17q-10.89,1.43-17.23-10.5a55.17,55.17,0,0,1-5.46-18.57c-.44-3.35-.74-5.64-.91-6.9-.22-1.72-.39-3-.51-3.92l8.57-1.12L105.3,72a38.35,38.35,0,0,0,3.3,11.82q3.81,7.86,10,7.05a8.89,8.89,0,0,0,4.46-1.78,41.43,41.43,0,0,1-3-9A103.59,103.59,0,0,1,117.91,69q-.57-4.31-.78-5.95c-.2-1.51-.35-2.69-.46-3.52l8.81-1.16L127.66,75q2,8.66,3.75,11.61Q134.5,91.94,141.34,93.1Z" transform="translate(-1.75)"/><path class="cls-1" d="M170.26,90.7q.15,8.63-8.43,14a27.3,27.3,0,0,1-14.19,4.37l-3.54.06-.16-8.87a26.39,26.39,0,0,0,10.21-1.37q7-2.41,6.87-8-.08-4-4.23-7.85-7.59-7.25-7.67-7.24a18.72,18.72,0,0,1-4.29-11.89,13.4,13.4,0,0,1,5.42-11.12,18.38,18.38,0,0,1,11.54-4.08l3.56-.06q-.09,8.39.07,8.61l-1.28,0a15.67,15.67,0,0,0-6.85,1.46,6,6,0,0,0-3.58,5.69q.07,4.11,4.35,8.23L166,80A16.16,16.16,0,0,1,170.26,90.7Z" transform="translate(-1.75)"/><path class="cls-1" d="M193.12,69,181.91,98.72,174,95.66l10.81-29.82C185.4,66,188.18,67.07,193.12,69Zm6.44-15.82q-3.6,2-11.84,6.1c-.8-1.7-2.07-4.32-3.82-7.88q3.67-2,11.84-6.11C196.64,47,197.92,49.58,199.56,53.13Z" transform="translate(-1.75)"/><path class="cls-1" d="M240.14,69.67a17.21,17.21,0,0,1-6.34,11.26,15.41,15.41,0,0,1-12.56,3.36A24,24,0,0,1,209,78.75q-6.33-5.52-5.17-13.17A16.1,16.1,0,0,1,211.5,54a18.35,18.35,0,0,1,13.13-2.95q7.63,1.15,11.91,5.57Q241.36,61.7,240.14,69.67Zm-10.08,31.89L206.65,98,208,89.23,231.4,92.8Zm2.07-32.85q1.1-7.21-9.36-8.81a9.77,9.77,0,0,0-6.19.8,7.38,7.38,0,0,0-3.49,5.58q-.59,3.89,3,6.57a13.82,13.82,0,0,0,6.6,2.83,8.33,8.33,0,0,0,5.91-1.56A7.67,7.67,0,0,0,232.13,68.71Z" transform="translate(-1.75)"/><path class="cls-1" d="M291.3,62.49l-4.08,41.35q-2.69.84-7.76,2.68L256.9,81.4l-9.36,25.8-8.08-2.91q4-11.61,11.46-33,1-.35,7.35-1.74l20.84,23,3.22-30.46A57.85,57.85,0,0,0,291.3,62.49Z" transform="translate(-1.75)"/><path class="cls-2" d="M307.84,110c1.47-.65-.61-1.08-2.38-1.49l-1.34,2Z" transform="translate(-1.75)"/><path class="cls-2" d="M299.39,110.37l-4,2.35,3-1.24c3.49.61-.24,2.07-1.5,2.55C302.35,113,298.61,111.54,299.39,110.37Z" transform="translate(-1.75)"/><path class="cls-2" d="M291.21,112.71c-2.74.12-1.86,1.29-.68,1.58C290.66,113.74,292.39,113,291.21,112.71Z" transform="translate(-1.75)"/><path class="cls-2" d="M121.79,111.91c.78.24,1.71.4,1.58.76C124.24,112.32,124.42,112,121.79,111.91Z" transform="translate(-1.75)"/><path class="cls-2" d="M123.37,112.67l-.56.22c.18,0,.33,0,.53-.1C123.39,112.74,123.36,112.71,123.37,112.67Z" transform="translate(-1.75)"/><path class="cls-2" d="M178.44,129c3.11-.93,4.86-.33,7.79-.79l1.65,1.52c3.18-.56,1.39-1.33,3.69-2.17a17.87,17.87,0,0,0,5.77.33c2.06-.14,3.92-.42,4.61-.4,1,.69-1.17,1-1.62,1.48,3.71-.64,3.41-2.11,8-2.27l.09.42a139.16,139.16,0,0,1,18.09-2.52c6.37-.65,12.91-1.15,19-2.26-.83,0-.65-.37-1-.66,12.85-1.32,27.71-2.58,37.52-7.16-6.9,1-18.82-.47-25.7,2.75-2.69-.9-6.62,1-7.81-.54-10.13,0-14.08,2.93-23.81,3.47-1.41-.23-.77-1-1.2-1.73,2.56-.34,5.11-.73,7.66-1.12l-4.72-.36c2-.8,7-.56,7.45-2-6.63,2.06-17.43,1.2-23.22,3.37,2.77.28,6.2-.31,9.47-.31,1.46.43,3.7.7,3.59,1.46a60.16,60.16,0,0,1-13.22,2c-4.31.21-8.66.26-13.47.72-2.41.21-5.69.13-6.1-.59,1.58-.28.37-.87,1.67-1.25-3.4.68-.3,2.68-5.25,2.46l.6-2.58c-1.93,2.75-6-.37-9.54,1.19-1.26-1,1.06-1.62,3.76-1.7-3.07-.45-3.33,1-5.78,1l2.31-2.19c-2.59,2.09-4.66-.41-6.13-1.11-.17.53,1.19,2.2-2.07,2.07-1.4-.28-.68-.83-1-1.14-.18.53-1.36,1.54-3.52,1.55-.39-.74,1.44-1.08,1.59-1.82-1.62,0-2.95.13-4.11-.5-2.88.55.17,1.06-1.6,1.82-4.41-.6-.4-2.55-2-4.13,3.33-1,7.58-1.21,9.35-1.8-2.11.21-4.23.33-6.34.5.39-.85-4.25-1.56-.9-2.33a57.34,57.34,0,0,0-10.06-.33c-3.44.09-6.86.36-9.89.59.84.33,1.93.56,1.73,1.09-3.15.38-2.75-.68-3.36-1.32-2.33.5-2.15,2-3.65,3-4.82-1.4-5.52-.74-9.67-2.52l.25,1.48c-3-1.18-3.37,1-6.54.24-.19-.31,1-.73,2-1.1-2.8.57-2.63-1.18-5.37-.52l2.14-1.72c-2.22.11-5.43.77-4.36-.69-1.89,1-4.53,1.36-7.29,1.74a49.41,49.41,0,0,0-8,1.52l.17-1.31c-1.15.92-3.42,1.17-5.65,1.48s-4.39.73-5.3,1.81l-.45-.46c-1.53.83-3,1.71-4.55,2.56-2.22.24-1.84-1.8-1.91-1.24-2.38.64-4.49,1.21-6.42,1.59a28,28,0,0,1-5.27.71c-.18.92-1.49,1.8-3.23,2.63s-3.92,1.55-5.84,2.23a134.59,134.59,0,0,0-28.22,9.93,161.87,161.87,0,0,0-24.8,14.74c-2.3,1.4-4.58,5-6.76,7.44,3.52-1.81,3.46-2.75,6.9-4.78,2.84-1.12,4.67-.09,7.44-.33l-1.83-.66c3-2.94,2.8-.64,5-3.4l.94,2.15c.45-1.59,3.43-1.94,4.73-1.9l.24-1.91c2.68-.27,4.33-.62,5.64.41L30,143.66c1.23.42,8.88-4,7.09-.49a4.29,4.29,0,0,1,2.42-2l.78,1.28c2-1.22,4.29-2.38,5.2-1.84a3.17,3.17,0,0,0-1.34,2.28c4.54-1.6,4.63-2.86,4.55-4.19s-.3-2.66,3.81-4.11l.21.95,1.77-1.67c.86.14,1.72.28,2.58.45,1-2,3.95-2.88,7.22-3.5,1.63-.34,3.35-.6,5-1a15.32,15.32,0,0,0,4.25-1.57c2-.74,5,.53,8.8-.44l-.54-1.4c1.7.39,5.49.34,9.25.57a40,40,0,0,1,5.38.72,8.52,8.52,0,0,1,3.78,1.69c2.75-1.49-.34-.27-.42-1.44a12.51,12.51,0,0,1,3.32-.92,5.52,5.52,0,0,1,2.2.23,27.59,27.59,0,0,0,3.65,1.41c3.42-1.06-2.71-.32-.93-1.6a7.88,7.88,0,0,0,5-.74,9.65,9.65,0,0,1,6-.76c.68.81-1.7.63-2.36,1.2,4.61-1.7,13.37-.93,20.31-.85,4.12.68,9.33,1.26,14.69,1.87s10.9,1.05,15.8,1.82l.19-.53c4.06,1.39,8.49.09,13.25.72Z" transform="translate(-1.75)"/><path class="cls-2" d="M236,113.28l-.84-1.22-4.37,1.1C232.61,114.08,233.49,113.16,236,113.28Z" transform="translate(-1.75)"/><polygon class="cls-2" points="233.49 117.18 235.78 116.46 232.03 116.76 233.49 117.18"/><path class="cls-2" d="M179,116.9l.57.2c2.82-.34,5.63-.75,8.44-1.16C185,116.29,182,116.63,179,116.9Z" transform="translate(-1.75)"/><path class="cls-2" d="M122.08,110.62c1-.71,2.42-.4,3.46-.86-1.36.21-2.71.41-4.05.68Z" transform="translate(-1.75)"/><path class="cls-2" d="M82.17,109.57c-1.13,2.51-3.07.56-.65,2.2C83.87,111,81.61,110.45,82.17,109.57Z" transform="translate(-1.75)"/><path class="cls-2" d="M73.79,114.68a6.19,6.19,0,0,0,2.76-1.22C74.51,112.84,74.69,114,73.79,114.68Z" transform="translate(-1.75)"/><path class="cls-3" d="M335.52,49s-55.31,35.5-10.33,65.09C338.94,123.47,376.12,114,395,89c23.48-31.11-2.71-39.68-2.71-39.68l4.42,11.83L398.73,70l-28.34-8.5L353.76,79.26l-1.6-23.66-21.63,2.08Z" transform="translate(-1.75)"/><path class="cls-4" d="M353.14,28.52l6.1,8.66,6.78,3L355.86,48l8.06,1.5-1.4,10.33L369,50.52l13.1,8.66-6.28-13.66,7.5-4.5-9-1S369.07,26.52,392,8.85L390,7.52s-14.49,1.66-19.68,32.66C368.71,37.85,353.14,28.52,353.14,28.52Z" transform="translate(-1.75)"/><path class="cls-5" d="M394.29,8.17C384.17,13.59,378.12,23.86,376.51,35a24.12,24.12,0,0,0-.26,2.56,3.05,3.05,0,0,0,3.51,3.24l20.69-2.33-1.81-5.67-19,9c-1.91.91-2.05,3.07-1,4.65l14,21.12,2,3,4-4.4L376.5,53.85l-3.14-1.76a3.07,3.07,0,0,0-4.18.74L358.7,68.54l-1.52,2.29,5.44,2,1.56-21a3,3,0,0,0-2.71-3.28H344.14l1,5.7,17.63-10a3,3,0,0,0-1-5.7,53.72,53.72,0,0,0-11-.3A56.82,56.82,0,0,0,328,44.06a47.36,47.36,0,0,0-21.41,22.43,67.36,67.36,0,0,0-5.51,19.94,35.54,35.54,0,0,0-.48,6.26c.07,1.53.2,3,.41,4.57a41.83,41.83,0,0,0,2.06,8.32A28.8,28.8,0,0,0,323,123.67c9.84,2.63,20.39,1.56,30.15-.91a113.31,113.31,0,0,0,30.14-12.54c7.8-4.65,15.72-10.26,21.07-17.73,4.78-6.67,9-13.85,10-22.17a22.77,22.77,0,0,0-2.56-13.84c-3.12-5.44-8.27-9.09-13.91-11.59A62.32,62.32,0,0,0,386,41.23c-1.58-.35-3.13,1.23-3.27,2.71a3.08,3.08,0,0,0,2.7,3.27,53.25,53.25,0,0,1,10.8,3.51l1.11.52.33.17.18.09c.74.4,1.47.83,2.18,1.29a26.17,26.17,0,0,1,3.26,2.48c-.48-.44.16.16.3.29s.37.39.56.59q.64.69,1.23,1.44l.51.7.24.35c-.05-.07-.35-.58-.08-.12s.56.94.81,1.44a14.72,14.72,0,0,1,.65,1.46c.1.25.18.5.28.75s.12.55-.07-.21c0,.16.1.31.14.47a20.9,20.9,0,0,1,.58,3c0,.25.05.51.07.77s0,.25,0,.38c.06.4,0-.63,0-.23s0,1.09,0,1.64a26.46,26.46,0,0,1-.32,3.06c-.09.51-.2,1-.3,1.51.11-.54.07-.29,0,.09s-.15.56-.23.84c-.27,1-.59,2-.95,2.92s-.76,1.93-1.2,2.87c-.19.42-.39.84-.59,1.25-.11.22-.23.43-.33.65-.23.45.08-.15.1-.2l-.21.4c-.87,1.57-1.8,3.11-2.82,4.59-.9,1.31-1.84,2.61-2.81,3.87-.54.71-1.11,1.39-1.7,2.06L397,92c-.15.14-.28.3-.42.45-.38.4-.76.78-1.15,1.17a72.81,72.81,0,0,1-10.2,8.24c-.46.32-.92.62-1.38.93l-.38.24c.57-.37.21-.13.09,0l-.86.54c-1.07.68-2.15,1.33-3.25,2-2.18,1.26-4.41,2.45-6.67,3.57a114.11,114.11,0,0,1-14.57,6l-.92.3c.6-.2,0,0-.27.08l-2,.59c-1.22.35-2.46.68-3.7,1-2.46.6-4.95,1.1-7.45,1.48-1.24.18-2.48.34-3.72.46l-1.67.13-.89.06-.44,0c-.43,0,.77,0,0,0a55.28,55.28,0,0,1-6.81-.2c-1.12-.12-2.23-.27-3.33-.47l-.79-.16c-.32-.06-.69-.15-.12,0-.54-.12-1.08-.26-1.62-.41a29.84,29.84,0,0,1-3-1c-.44-.17-.88-.36-1.31-.56l-.69-.32-.33-.17c-.34-.15.56.32.09,0a29.08,29.08,0,0,1-2.55-1.57q-.61-.44-1.2-.9c-.2-.16-.39-.31-.58-.48l-.28-.24c-.42-.34.34.33.07.07a29.05,29.05,0,0,1-2.09-2.21c-.31-.37-.61-.76-.9-1.15-.16-.21-.31-.42-.46-.64l-.22-.33c-.4-.56.34.59,0,0a36.5,36.5,0,0,1-2.85-6.15c-.18-.52,0,0,0,.12l-.14-.44c-.08-.3-.17-.6-.25-.9-.16-.61-.31-1.23-.44-1.86a40.81,40.81,0,0,1-.66-4.13c-.08-.67-.14-1.34-.19-2a9.49,9.49,0,0,1,0-2.15c.17-1.93.39-3.85.69-5.76a58,58,0,0,1,2.14-9.39,54.78,54.78,0,0,1,3.34-8.36c.07-.15.15-.3.23-.46.21-.41-.21.4,0,0l.43-.79c.37-.65.75-1.3,1.15-1.94.67-1.09,1.4-2.15,2.17-3.18s1.52-1.92,2.33-2.85c.36-.41,0,0-.06.07l.3-.33.62-.64c.41-.42.82-.82,1.25-1.22a41.32,41.32,0,0,1,5.35-4.26l.34-.22c.34-.23-.49.3-.14.09l.68-.43c.49-.3,1-.58,1.47-.86q1.37-.77,2.79-1.44a51,51,0,0,1,5.6-2.23c.78-.26-.4.11.1,0,.23-.07.46-.15.69-.21.49-.15,1-.28,1.46-.41.9-.24,1.8-.45,2.71-.65,1.73-.36,3.48-.65,5.23-.86,1.57-.19,3.14-.27,4.71-.39.11,0-.82,0-.2,0h.52l1.07,0c.64,0,1.28,0,1.92,0a48.78,48.78,0,0,1,5,.32c.23,0,.45,0,.67.09l-1-5.7-17.63,10a3.11,3.11,0,0,0-1.67,3.23,3,3,0,0,0,2.67,2.47h17.34l-2.71-3.27-1.55,21c-.22,2.91,3.74,4.56,5.44,2l10.48-15.71,1.52-2.29-4.18.74,22.2,12.39,3.14,1.75a3,3,0,0,0,4-4.4l-14-21.12-2-3-1,4.65,19-9c3.15-1.49,1.49-6-1.81-5.66l-20.69,2.33,3.51,3.24c0-.61.08-1.23.16-1.83s.19-1.38.31-2.07c.07-.38.15-.77.23-1.16.14-.68-.11.43,0-.1l.18-.71a38,38,0,0,1,2.25-6.37c.13-.28.27-.57.41-.85s.37-.72.15-.3c.33-.62.68-1.24,1.06-1.84a32,32,0,0,1,2.43-3.37,26.75,26.75,0,0,1,7.43-6,3.07,3.07,0,0,0,1.42-4,3,3,0,0,0-4-1.43Z" transform="translate(-1.75)"/><path class="cls-5" d="M355.94,27.68l14.11,12c1.82,1.54,4.43-.13,4.71-2.18.18-1.33.41-2.65.66-4,.13-.67.26-1.34.4-2l.21-1c0-.2.08-.4.13-.6s.18-.8.07-.32.06-.25.08-.35.09-.37.13-.55l.33-1.33c.22-.86.45-1.72.69-2.57a64.68,64.68,0,0,1,4-10.69c.11-.22.23-.44.33-.65s-.25.46,0-.06.46-.84.7-1.25q.66-1.1,1.41-2.13c.24-.33.49-.65.76-1,.11-.14.24-.27.35-.42.29-.35-.43.42.1-.09a18.26,18.26,0,0,1,1.69-1.48c.32-.24.57-.33,0,0l.5-.29c.35-.19.72-.34,1.09-.51.56-.25-.13,0-.09,0,.2,0,.41-.11.61-.15.4-.08.81-.08,1.2-.16-.47.1-.55,0-.07,0l.59,0c.23,0,.46.06.69.09a1.09,1.09,0,0,0,.26,0c.32,0-.54-.19-.24,0s.93.28,1.36.45c.25.1.49.23.74.33.4.17-.43-.25.27.15a3.08,3.08,0,0,0,4.18-.74,3,3,0,0,0-.74-4.18C393.5,0,389.36-.81,385.39,1c-3.45,1.55-6,4.7-7.93,7.9-4,6.87-6.15,14.78-7.71,22.53-.37,1.83-.72,3.67-1,5.52l4.71-2.18-14.11-12a3,3,0,0,0-4.18.74,3.07,3.07,0,0,0,.74,4.18Z" transform="translate(-1.75)"/><path class="cls-6" d="M385.3,70.73c0,4-2.76,7.34-6.17,7.34S373,74.78,373,70.73s2.75-7.33,6.16-7.33S385.3,66.68,385.3,70.73Z" transform="translate(-1.75)"/><path class="cls-6" d="M375.93,72.05c0,4-2.76,7.34-6.17,7.34s-6.17-3.29-6.17-7.34,2.76-7.33,6.17-7.33S375.93,68,375.93,72.05Z" transform="translate(-1.75)"/><path class="cls-6" d="M374.76,72.55a1.72,1.72,0,1,1-1.67-2.16A2,2,0,0,1,374.76,72.55Z" transform="translate(-1.75)"/><path class="cls-6" d="M383.76,71.05a1.72,1.72,0,1,1-1.67-2.16A2,2,0,0,1,383.76,71.05Z" transform="translate(-1.75)"/><path class="cls-7" d="M390.08,79.7s-17.21,37-35,9.23" transform="translate(-1.75)"/><path class="cls-7" d="M389.09,77.21s2.62,7.05,4.84,4.83" transform="translate(-1.75)"/><path class="cls-7" d="M356.09,85.39s.84,7.25-4.75,7.25" transform="translate(-1.75)"/></g></g></svg>