<svg width="31" height="27" viewBox="0 0 31 27" fill="none" xmlns="http://www.w3.org/2000/svg">
<path d="M26.812 5.06298C26.5426 4.93306 26.21 4.85685 25.8578 4.77621C24.9459 4.56747 23.8111 4.30767 23.0248 2.97614C22.9793 2.89493 22.9382 2.81168 22.9018 2.7267C22.73 2.34682 22.4948 1.82655 21.5908 1.52589C21.5749 1.52074 21.5586 1.51657 21.5421 1.51342C21.5104 1.48396 21.4732 1.46008 21.4322 1.44297C21.1899 1.34625 20.9411 1.26381 20.6875 1.19615C20.5501 1.16047 20.2573 1.0846 19.9773 1.10065L19.2876 0.985921C19.2277 0.975944 19.166 0.979739 19.108 0.996972C19.0501 1.0142 18.9976 1.04434 18.9553 1.08472C18.3316 1.67972 18.4836 2.56314 18.5744 2.90653L18.269 3.48213C18.2454 3.52665 18.2325 3.57538 18.2314 3.62493C18.2303 3.67448 18.2408 3.72366 18.2624 3.76907C18.4525 4.16932 18.8838 5.35886 18.6253 6.00497C18.6248 6.00645 18.6241 6.00787 18.6235 6.00935C18.6013 6.06564 18.572 6.1193 18.536 6.16921C17.3975 7.71529 16.9484 8.55199 16.6206 9.16298C16.5178 9.35449 16.4291 9.51987 16.3321 9.68474C14.7029 12.4546 10.1765 14.9774 7.51513 15.2188C7.35123 15.2337 7.16109 15.2506 6.95268 15.269C5.71187 15.3789 3.83673 15.5449 2.95947 15.6998C2.92315 15.7056 2.88645 15.7093 2.84961 15.7107C2.84547 15.7107 2.84152 15.711 2.83726 15.7112C2.67713 15.718 2.44741 15.7055 2.22318 15.6933C1.66592 15.6628 1.08964 15.6314 0.740737 15.8147C0.698758 15.8368 0.66186 15.8662 0.632113 15.9013C0.523613 16.0295 -0.0162954 16.6947 0.000377998 17.2107C0.0135932 17.6124 0.501011 17.9733 1.2431 18.4779C1.36889 18.5632 1.48764 18.6442 1.57657 18.7098C2.8661 19.6602 4.35071 20.293 5.56768 20.6447C5.54559 20.6691 5.52734 20.6963 5.51346 20.7254C5.44318 20.8794 5.10138 21.6733 5.26756 22.1783C5.40341 22.5918 6.07479 22.8522 7.00813 23.1748C7.10768 23.209 7.19957 23.241 7.27775 23.2694C9.08094 23.9231 10.9654 24.1493 12.5433 24.1493C13.7628 24.1493 14.7992 24.0141 15.4717 23.8363C16.6541 23.5316 17.7942 23.1017 18.8693 22.5551C18.7311 22.7111 18.5979 22.8656 18.4754 23.0161C18.3863 23.1253 18.1521 23.2991 17.9258 23.4672C17.491 23.7899 17.0414 24.1236 16.9167 24.4754C16.9018 24.5177 16.8959 24.5624 16.8995 24.6068C16.9127 24.7688 16.9979 25.5961 17.3867 25.9676C17.5671 26.1399 17.8614 26.1972 18.264 26.1972C18.5371 26.1972 18.8601 26.1708 19.2309 26.1361C19.3865 26.1215 19.5335 26.1076 19.6471 26.1012C22.0195 25.9646 24.0593 25.1404 25.8829 23.5821C28.2838 21.5307 31.1196 17.8456 30.9961 11.9391C30.9536 9.89018 29.341 6.28292 26.812 5.06298ZM22.14 3.1809C22.1484 3.08199 22.1575 2.97443 22.1579 2.8593C22.178 2.90147 22.1976 2.94466 22.2178 2.98945C22.2639 3.09621 22.316 3.20069 22.3739 3.30246C22.9459 4.27119 23.6741 4.76659 24.3812 5.05775L24.119 5.54541L23.0282 5.65252C22.5517 5.15171 22.1535 4.48677 22.1256 3.46386C22.1233 3.37741 22.1314 3.28197 22.14 3.1809ZM20.0294 1.77914C20.2091 1.76952 20.6583 1.88249 21.0616 2.03933C21.4584 2.45512 21.4321 2.76779 21.4013 3.12746C21.3891 3.24501 21.3836 3.36308 21.3848 3.48116C21.4074 4.30841 21.6362 5.01444 22.0842 5.63954C22.1649 5.75217 22.2502 5.85768 22.3378 5.9575L21.822 6.31188L21.271 6.14684C21.2565 5.75194 21.1242 5.29768 20.8739 4.78822C20.7162 4.47003 20.5332 4.163 20.3264 3.86963L20.3282 3.22603C20.3284 3.15826 20.3067 3.09198 20.2659 3.03561C20.2607 3.02855 19.77 2.3244 20.0294 1.77914ZM19.3203 2.83198C19.2774 2.69695 19.2495 2.55825 19.2371 2.41802C19.2945 2.73555 19.413 3.04108 19.5869 3.32022L19.585 3.97235C19.5849 4.04265 19.6083 4.11128 19.6519 4.16892C19.9002 4.49661 20.4212 5.3242 20.5172 6.00747L19.4224 5.84812C19.5445 5.01518 19.1742 4.0308 19.0081 3.64415L19.3018 3.09064C19.3446 3.00997 19.3513 2.91701 19.3203 2.83187V2.83198ZM1.37593 17.7161C1.10724 17.5259 0.800206 17.2926 0.741355 17.1726C0.749877 16.9842 0.978425 16.6213 1.16264 16.3876C1.37087 16.3307 1.86971 16.3581 2.17959 16.375C2.2611 16.3795 2.33971 16.3837 2.41592 16.3872L2.27419 17.1232L1.37593 17.7161ZM2.03959 18.1764C2.02632 18.1666 2.01149 18.1561 1.99735 18.1459L2.68596 17.6914C3.01585 17.7707 3.77615 17.9443 4.63286 18.0746C4.7293 18.0883 4.82773 18.0664 4.90676 18.0136C4.98578 17.9609 5.03903 17.8815 5.05493 17.7927C5.07083 17.704 5.0481 17.6131 4.99168 17.5397C4.93526 17.4663 4.8497 17.4164 4.75358 17.4008C4.05336 17.2943 3.4078 17.1547 3.03722 17.069L3.17418 16.3576C4.04836 16.2122 5.83173 16.0543 7.02351 15.9488C7.2326 15.9303 7.42336 15.9134 7.58781 15.8984C10.4861 15.6352 15.2216 13.0057 16.9836 10.0101C17.0871 9.83401 17.1831 9.65509 17.2847 9.46569C17.6209 8.83967 18.0392 8.06 19.1492 6.55267C19.1609 6.53685 19.1712 6.5204 19.1821 6.50418L20.4262 6.68539C19.5852 8.93989 19.3452 9.69942 19.1342 10.5203C18.3566 13.5475 15.5079 17.3243 12.087 18.4045C11.2977 18.6537 8.98325 19.4159 7.76807 19.9427C7.629 20.0031 7.33234 20.0614 7.04555 20.1179C6.9097 20.1446 6.77291 20.1717 6.63916 20.2009C5.40557 19.9606 3.57688 19.3094 2.03959 18.1764ZM7.25904 22.5322C6.93471 22.4201 6.11401 22.1352 5.97259 21.9654C5.92319 21.7742 6.04744 21.3471 6.16403 21.0656C6.27321 21.001 6.4828 20.9412 6.70634 20.8892C6.73073 20.886 6.75471 20.8805 6.77792 20.8729C6.92464 20.8401 7.07334 20.8108 7.20018 20.7859C7.40113 20.746 7.58577 20.7097 7.74812 20.6686L8.10073 21.2735L7.25904 22.5322ZM15.268 23.1802C13.9418 23.5301 10.8554 23.7055 7.96666 22.7758L8.73697 21.6237C9.31715 21.6018 9.89445 21.5367 10.4632 21.429C10.5596 21.4112 10.6443 21.3588 10.6988 21.2835C10.7532 21.2081 10.773 21.1158 10.7536 21.027C10.7343 20.9382 10.6775 20.8602 10.5957 20.81C10.5139 20.7598 10.4138 20.7416 10.3175 20.7594C9.80002 20.8569 9.27513 20.9173 8.74753 20.94L8.43988 20.4121C9.67896 19.9119 11.6208 19.2739 12.3271 19.0507C14.0058 18.5206 15.7108 17.323 17.1282 15.6784C18.4342 14.1631 19.4282 12.3404 19.8553 10.6777C20.0628 9.87021 20.3016 9.11768 21.1557 6.83057L21.7754 7.01598C21.8317 7.03282 21.8916 7.03695 21.9501 7.02804C22.0085 7.01913 22.0638 6.99743 22.1113 6.96476L22.8452 6.46048C23.0114 6.60662 23.1746 6.73723 23.3236 6.85629C23.581 7.06196 23.8034 7.23964 23.9319 7.40667C25.4051 9.32176 25.0592 13.0623 24.3431 15.1067C23.5329 17.4195 22.2507 19.2886 20.5324 20.6619C19.1132 21.7963 17.3912 22.62 15.268 23.1802ZM18.8154 25.4868C18.4696 25.5141 18.0441 25.5354 17.9076 25.4807C17.7765 25.336 17.6811 24.9257 17.6472 24.6385C17.7599 24.4677 18.1492 24.1786 18.3909 23.9992C18.5173 23.9055 18.6352 23.8175 18.7409 23.733L19.2849 24.3618L18.8154 25.4868ZM25.3792 23.0817C24.7592 23.6114 22.8771 25.2187 19.6385 25.4172L20.0526 24.4245C20.0758 24.369 20.0828 24.3088 20.073 24.2499C20.0631 24.1911 20.0368 24.1357 19.9965 24.0891L19.2427 23.218C19.4889 22.9298 19.7643 22.6306 20.0531 22.3172C20.439 21.8985 20.8374 21.4657 21.1756 21.0447C22.9345 19.592 24.2165 17.6911 25.0483 15.3167C25.7592 13.2873 26.2488 9.23805 24.5364 7.012C24.3563 6.77781 24.0905 6.56542 23.8091 6.34045C23.7805 6.31769 23.7516 6.29453 23.7226 6.27125L24.3999 6.20472C24.4608 6.19868 24.5191 6.17884 24.5696 6.14697C24.6201 6.1151 24.6612 6.0722 24.6894 6.0221C25.6724 6.19636 26.5425 6.75846 27.4915 8.59712C27.5122 8.63793 27.5414 8.67457 27.5775 8.70491C27.6136 8.73526 27.6559 8.75873 27.7019 8.77396C27.7479 8.78918 27.7967 8.79587 27.8455 8.79364C27.8944 8.79141 27.9422 8.7803 27.9864 8.76095C28.0305 8.7416 28.07 8.71439 28.1027 8.68089C28.1354 8.6474 28.1606 8.60827 28.1768 8.56578C28.193 8.52328 28.1999 8.47825 28.1971 8.43328C28.1943 8.38831 28.1819 8.34429 28.1606 8.30375C27.4912 7.00682 26.6444 5.773 25.0276 5.39409L25.0819 5.29307C25.2905 5.34998 25.4914 5.39602 25.6792 5.43899C26.0003 5.51258 26.2777 5.57609 26.4684 5.668C28.7228 6.7555 30.2172 10.1165 30.2556 11.9524C30.3736 17.606 27.6689 21.125 25.3792 23.0817Z" fill="black"/>
</svg>
