<svg width="36" height="36" viewBox="0 0 36 36" fill="none" xmlns="http://www.w3.org/2000/svg">
<g clip-path="url(#clip0)">
<path d="M25.4637 34.8056C20.8747 30.1079 17.5901 21.3869 21.3573 10.4991C22.0412 10.2245 22.5946 9.71168 22.9022 9.0286C23.3332 8.07086 23.1613 6.97992 22.4535 6.18148C21.6987 5.33004 20.6753 4.74666 19.5388 4.497L19.6088 3.7903C19.8609 2.08466 20.5319 1.41999 21.9986 1.41999C22.0634 1.41999 22.9456 1.40845 23.122 1.40626C23.5103 1.40131 23.821 1.08243 23.816 0.694064C23.8111 0.308717 23.4972 0 23.1129 0C23.1099 0 23.1066 0 23.1036 0C22.7031 0.00521853 22.0492 0.0134583 21.9986 0.0137329C20.7679 0.0137329 19.814 0.406496 19.1639 1.18131C18.6714 1.76798 18.3698 2.53758 18.2144 3.60298C18.213 3.61369 18.2116 3.62468 18.2105 3.63539L18.1386 4.36214C16.7562 4.39318 15.3159 4.88729 14.1659 5.73132C12.8467 6.69921 12.1205 7.9599 12.1205 9.28101C12.1205 9.4741 12.2004 9.65702 12.3391 9.78941C12.0279 10.506 11.6961 11.3681 11.3984 12.3462C10.5857 15.0181 9.89493 19.0822 11.2207 23.2708C12.9261 28.6593 17.4577 32.9237 24.6892 35.9455C24.7773 35.9823 24.8694 35.9999 24.9603 35.9999C25.1877 35.9999 25.408 35.8895 25.5423 35.6917C25.7301 35.4154 25.6972 35.0449 25.4637 34.8056ZM18.2759 5.76565C19.5022 5.76565 20.641 6.25701 21.4007 7.11395C21.7465 7.50424 21.8261 7.99176 21.6193 8.45154C21.4306 8.87067 20.9516 9.31864 20.1738 9.31864C19.8178 9.31864 19.6805 9.08848 19.4643 8.83002C19.2438 8.56635 18.8645 8.50098 18.5681 8.67539L17.5099 9.29832C17.0569 9.56501 16.4261 9.47382 16.1033 9.09507C16.1033 9.09507 15.5142 8.40348 15.5139 8.40348C15.356 8.21808 15.0918 8.12058 14.8435 8.16947L13.7097 8.39139C14.3364 6.87747 16.4648 5.76565 18.2759 5.76565ZM12.5654 22.8582C11.349 19.0262 11.984 15.273 12.7311 12.7994C13.0955 11.5923 13.5213 10.5634 13.8833 9.79023L14.71 9.62846L15.0324 10.0069C15.5079 10.565 16.2121 10.8611 16.9281 10.8609C17.3725 10.8609 17.8219 10.7469 18.2237 10.5104L18.7683 10.1896C19.012 10.4708 19.3594 10.6419 19.8035 10.7013C18.2009 15.6344 17.8817 20.4311 18.8604 24.9981C19.6418 28.645 21.0955 31.4142 22.4504 33.3511C17.2363 30.6358 13.9168 27.1152 12.5654 22.8582Z" fill="#424242"/>
<path d="M15.3718 12.2028C15.0139 12.0974 14.6071 12.3102 14.4984 12.678C14.0361 14.2452 13.7738 15.605 13.6738 16.9594C13.645 17.3461 13.937 17.6845 14.3237 17.7125C14.3413 17.7139 14.3588 17.7144 14.3759 17.7144C14.7423 17.7144 15.0496 17.4285 15.0771 17.0635C15.1694 15.8119 15.4141 14.5449 15.8472 13.076C15.9571 12.7041 15.7439 12.3124 15.3718 12.2028Z" fill="#424242"/>
<path d="M15.1311 19.8282C15.1311 20.2166 14.8161 20.5313 14.428 20.5313C14.0396 20.5313 13.7249 20.2166 13.7249 19.8282C13.7249 19.4398 14.0396 19.1251 14.428 19.1251C14.8161 19.1251 15.1311 19.4398 15.1311 19.8282Z" fill="#424242"/>
</g>
<defs>
<clipPath id="clip0">
<rect width="36" height="36" fill="white"/>
</clipPath>
</defs>
</svg>
