<svg width="36" height="36" viewBox="0 0 36 36" fill="none" xmlns="http://www.w3.org/2000/svg">
<path d="M33.1877 29.25C33.3368 29.25 33.4799 29.1907 33.5854 29.0852C33.6909 28.9798 33.7502 28.8367 33.7502 28.6875V9.5625C33.7502 9.46066 33.7225 9.36073 33.6702 9.27337C33.6179 9.186 33.5428 9.11448 33.453 9.06644C33.3632 9.0184 33.2621 8.99563 33.1604 9.00057C33.0587 9.00551 32.9602 9.03798 32.8755 9.0945L32.5841 9.28856C32.4638 8.37826 32.049 7.53234 31.4028 6.87993C31.5381 6.8395 31.6761 6.80905 31.8157 6.78881L32.1369 6.74493C32.2101 6.73496 32.2806 6.71067 32.3444 6.67344C32.4083 6.63621 32.4641 6.58678 32.5088 6.52797C32.5535 6.46915 32.5862 6.40211 32.605 6.33066C32.6238 6.25921 32.6284 6.18476 32.6184 6.11156C32.6084 6.03835 32.5841 5.96783 32.5469 5.90402C32.5097 5.8402 32.4603 5.78434 32.4014 5.73963C32.3426 5.69492 32.2756 5.66223 32.2041 5.64343C32.1327 5.62463 32.0582 5.62009 31.985 5.63006L31.6633 5.67393C31.2006 5.73776 30.7526 5.88146 30.3392 6.09862C29.8466 5.84035 29.307 5.68393 28.7527 5.63871C28.1984 5.59348 27.6406 5.66036 27.1127 5.83537C27.4032 5.45069 27.5612 4.9821 27.5627 4.5C27.5627 3.90326 27.3256 3.33096 26.9036 2.90901C26.4817 2.48705 25.9094 2.25 25.3127 2.25C25.1369 2.24993 24.9618 2.27146 24.7912 2.31412C24.5326 1.94678 24.1895 1.64701 23.7908 1.44008C23.392 1.23315 22.9494 1.12513 22.5002 1.12513C22.0509 1.12513 21.6083 1.23315 21.2095 1.44008C20.8108 1.64701 20.4677 1.94678 20.2091 2.31412C20.0386 2.2715 19.8634 2.24996 19.6877 2.25C19.0909 2.25 18.5186 2.48705 18.0967 2.90901C17.6747 3.33096 17.4377 3.90326 17.4377 4.5C17.4376 4.67578 17.4591 4.8509 17.5018 5.02143C17.1938 5.2372 16.9326 5.513 16.7339 5.83227C16.5352 6.15153 16.403 6.50768 16.3454 6.8793C16.2879 7.25092 16.306 7.63035 16.3988 7.99478C16.4915 8.35922 16.657 8.70114 16.8853 9C16.8044 9.10849 16.7312 9.22259 16.6665 9.34143L13.9502 4.63162L13.3877 3.65625C13.0552 3.08013 12.6124 2.57517 12.0847 2.17024C11.557 1.76532 10.9547 1.46836 10.3121 1.29633C9.66959 1.12431 8.99945 1.0806 8.34001 1.16769C7.68056 1.25479 7.04475 1.47099 6.4689 1.80393C5.82363 2.17754 5.35288 2.79183 5.15991 3.51205C4.96694 4.23227 5.0675 4.99963 5.43953 5.64581L6.08247 6.759C6.15759 6.88714 6.28035 6.98036 6.42395 7.01833C6.56755 7.0563 6.72035 7.03592 6.84898 6.96165C6.97762 6.88738 7.07166 6.76524 7.11058 6.62189C7.14949 6.47855 7.13013 6.32562 7.05672 6.1965L6.41265 5.08331C6.30173 4.89128 6.22974 4.67927 6.2008 4.45941C6.17187 4.23954 6.18655 4.01612 6.24401 3.80194C6.30148 3.58775 6.4006 3.38699 6.53571 3.21113C6.67081 3.03527 6.83926 2.88777 7.03141 2.77706C7.47923 2.51855 7.97359 2.35079 8.48626 2.28334C8.99892 2.21589 9.51985 2.25007 10.0193 2.38395C10.5188 2.51782 10.9869 2.74876 11.3972 3.06357C11.8074 3.37839 12.1515 3.77092 12.41 4.21875L12.6913 4.70531L10.7433 5.83031C10.6793 5.86724 10.6232 5.91642 10.5782 5.97504C10.5332 6.03366 10.5002 6.10056 10.4811 6.17194C10.4619 6.24332 10.457 6.31776 10.4667 6.39103C10.4763 6.4643 10.5003 6.53496 10.5372 6.59896C10.5741 6.66297 10.6233 6.71908 10.6819 6.76408C10.7405 6.80908 10.8074 6.84209 10.8788 6.86124C10.9502 6.88038 11.0246 6.88528 11.0979 6.87565C11.1712 6.86602 11.2418 6.84205 11.3058 6.80512L13.2543 5.68012L14.0981 7.14262L12.1496 8.26762C12.0519 8.32486 11.9737 8.41025 11.9254 8.51263C11.877 8.615 11.8606 8.7296 11.8784 8.84142C11.8962 8.95325 11.9474 9.05709 12.0252 9.13938C12.1029 9.22167 12.2038 9.27856 12.3144 9.30262L9.81297 10.9687L8.08722 7.98018C8.01263 7.85091 7.88974 7.75657 7.74559 7.71791C7.60143 7.67925 7.44783 7.69944 7.31856 7.77403C7.18929 7.84862 7.09495 7.97151 7.05629 8.11566C7.01763 8.25981 7.03781 8.41341 7.11241 8.54268L8.01241 10.1025L6.49872 9.09337C6.41394 9.0371 6.31548 9.00488 6.21384 9.00014C6.1122 8.99541 6.01117 9.01833 5.92153 9.06647C5.83188 9.11462 5.75697 9.18617 5.70478 9.27352C5.65259 9.36087 5.62507 9.46074 5.62515 9.5625V12.375C5.62515 12.5242 5.68442 12.6673 5.78991 12.7727C5.8954 12.8782 6.03847 12.9375 6.18765 12.9375C6.33684 12.9375 6.47991 12.8782 6.5854 12.7727C6.69089 12.6673 6.75015 12.5242 6.75015 12.375V10.6138L9.25047 12.2805C9.3429 12.3422 9.45153 12.3751 9.56266 12.3751C9.67378 12.3751 9.78241 12.3422 9.87484 12.2805L12.9377 10.2375L16.0005 12.2794C16.0929 12.341 16.2015 12.374 16.3127 12.374C16.4238 12.374 16.5324 12.341 16.6248 12.2794L19.6877 10.2375L22.7505 12.2794C22.8429 12.341 22.9515 12.374 23.0627 12.374C23.1738 12.374 23.2824 12.341 23.3748 12.2794L25.8752 10.6132V33.75H18.5627C18.4135 33.75 18.2704 33.8093 18.1649 33.9147C18.0594 34.0202 18.0002 34.1633 18.0002 34.3125C18.0002 34.4617 18.0594 34.6048 18.1649 34.7102C18.2704 34.8157 18.4135 34.875 18.5627 34.875H33.1877C33.3368 34.875 33.4799 34.8157 33.5854 34.7102C33.6909 34.6048 33.7502 34.4617 33.7502 34.3125V30.9375C33.7502 30.7883 33.6909 30.6452 33.5854 30.5397C33.4799 30.4343 33.3368 30.375 33.1877 30.375C33.0385 30.375 32.8954 30.4343 32.7899 30.5397C32.6844 30.6452 32.6252 30.7883 32.6252 30.9375V32.9546L30.3752 30.7046V27.5625C30.3752 27.4133 30.3159 27.2702 30.2104 27.1647C30.1049 27.0593 29.9618 27 29.8127 27C29.6635 27 29.5204 27.0593 29.4149 27.1647C29.3094 27.2702 29.2502 27.4133 29.2502 27.5625V30.7046L27.0002 32.9546V10.6132L29.2502 12.1134V19.125C29.2502 19.2742 29.3094 19.4173 29.4149 19.5227C29.5204 19.6282 29.6635 19.6875 29.8127 19.6875C29.9618 19.6875 30.1049 19.6282 30.2104 19.5227C30.3159 19.4173 30.3752 19.2742 30.3752 19.125V12.1134L32.6252 10.6138V28.6875C32.6252 28.8367 32.6844 28.9798 32.7899 29.0852C32.8954 29.1907 33.0385 29.25 33.1877 29.25ZM29.3019 6.88331C29.099 7.09723 28.92 7.33261 28.7681 7.58531C28.7285 7.64865 28.7018 7.71926 28.6898 7.793C28.6777 7.86675 28.6805 7.94215 28.6979 8.01482C28.7153 8.08748 28.7471 8.15595 28.7912 8.21622C28.8354 8.27649 28.8911 8.32735 28.9552 8.36584C29.0192 8.40433 29.0903 8.42967 29.1643 8.44039C29.2382 8.4511 29.3136 8.44698 29.3859 8.42825C29.4582 8.40952 29.5261 8.37657 29.5856 8.33132C29.645 8.28606 29.6949 8.22942 29.7322 8.16468C29.8971 7.89053 30.1061 7.64553 30.351 7.43962C30.7099 7.72911 30.9994 8.09531 31.1983 8.51133C31.3971 8.92735 31.5003 9.38264 31.5002 9.84375C31.5002 9.90393 31.4906 9.96131 31.4867 10.0204L29.8127 11.1375L26.7498 9.09562C26.6575 9.03358 26.5489 9.0003 26.4377 9C26.4373 8.60434 26.3313 8.21595 26.1305 7.875C26.1778 7.79367 26.2201 7.70951 26.2571 7.623C26.652 7.23858 27.1429 6.96717 27.6784 6.83707C28.214 6.70696 28.7746 6.72293 29.3019 6.88331ZM13.2498 9.0945C13.2011 9.06226 13.1476 9.03796 13.0912 9.0225L14.6606 8.11687L16.3785 11.0925L16.3127 11.1375L13.2498 9.0945ZM23.0627 11.1375L20.7761 9.61312C21.4251 8.41503 22.4728 7.48175 23.7377 6.975C23.8763 6.9195 23.9871 6.81122 24.0459 6.67398C24.1046 6.53674 24.1065 6.38178 24.051 6.24318C23.9955 6.10459 23.8872 5.99372 23.75 5.93496C23.6127 5.87621 23.4578 5.87437 23.3192 5.92987C22.6735 6.19085 22.0707 6.54732 21.531 6.98737C21.5829 6.29575 21.5246 5.60026 21.3583 4.92693C21.3408 4.85482 21.3092 4.78689 21.2653 4.72706C21.2214 4.66722 21.1661 4.61666 21.1026 4.57828C21.0391 4.5399 20.9686 4.51448 20.8952 4.50346C20.8218 4.49244 20.747 4.49605 20.675 4.51409C20.603 4.53212 20.5353 4.56422 20.4758 4.60853C20.4163 4.65284 20.3661 4.70849 20.3282 4.77228C20.2902 4.83607 20.2653 4.90672 20.2548 4.98018C20.2443 5.05365 20.2485 5.12846 20.267 5.20031C20.5885 6.48601 20.4272 7.84497 19.8137 9.01968C19.7393 9.00166 19.6621 8.9991 19.5867 9.01216C19.5113 9.02522 19.4394 9.05363 19.3755 9.09562L17.4731 10.3641C17.5463 9.99849 17.7393 9.66775 18.0215 9.42412C18.0814 9.37133 18.1293 9.30642 18.1622 9.23368C18.195 9.16094 18.212 9.08205 18.212 9.00225C18.212 8.92244 18.195 8.84355 18.1622 8.77081C18.1293 8.69807 18.0814 8.63316 18.0215 8.58037C17.8382 8.42391 17.6911 8.22951 17.5903 8.0106C17.4895 7.79169 17.4374 7.5535 17.4377 7.3125C17.4391 6.98928 17.5331 6.67324 17.7085 6.40179C17.884 6.13034 18.1335 5.91484 18.4277 5.78081C18.4969 5.74917 18.559 5.7038 18.6102 5.64746C18.6614 5.59111 18.7006 5.52497 18.7254 5.45303C18.7503 5.38108 18.7603 5.30484 18.7549 5.22891C18.7494 5.15299 18.7286 5.07896 18.6937 5.01131C18.6094 4.85395 18.5644 4.67851 18.5627 4.5C18.564 4.30815 18.6145 4.11984 18.7091 3.95297C18.8038 3.7861 18.9396 3.64622 19.1036 3.54662C19.2676 3.44702 19.4543 3.391 19.646 3.3839C19.8377 3.3768 20.0281 3.41886 20.199 3.50606C20.2666 3.54096 20.3406 3.56177 20.4166 3.56722C20.4925 3.57267 20.5687 3.56266 20.6407 3.53779C20.7126 3.51291 20.7788 3.47369 20.8351 3.42251C20.8915 3.37132 20.9368 3.30923 20.9685 3.24C21.1013 2.94492 21.3164 2.69448 21.5882 2.51879C21.8599 2.34309 22.1766 2.24963 22.5002 2.24963C22.8237 2.24963 23.1404 2.34309 23.4121 2.51879C23.6839 2.69448 23.8991 2.94492 24.0318 3.24C24.0635 3.30931 24.1088 3.37147 24.1652 3.42272C24.2216 3.47396 24.2878 3.51323 24.3598 3.53812C24.4318 3.56254 24.508 3.57228 24.5838 3.56678C24.6596 3.56127 24.7336 3.54062 24.8013 3.50606C24.9409 3.43306 25.0943 3.39035 25.2515 3.38073C25.4087 3.37111 25.5662 3.39479 25.7136 3.45022C25.8611 3.50565 25.9951 3.59159 26.107 3.7024C26.219 3.81322 26.3062 3.94642 26.3631 4.09329C26.42 4.24015 26.4453 4.39738 26.4372 4.55467C26.4292 4.71197 26.388 4.8658 26.3164 5.00608C26.2448 5.14637 26.1444 5.26996 26.0217 5.36876C25.8991 5.46756 25.7569 5.53935 25.6046 5.57943C25.528 5.60018 25.4566 5.63691 25.3952 5.68721C25.3338 5.73751 25.2837 5.80024 25.2483 5.87128C25.2128 5.94232 25.1928 6.02005 25.1896 6.09937C25.1863 6.17869 25.1999 6.2578 25.2294 6.3315C25.2836 6.46441 25.3119 6.60646 25.3127 6.75C25.3118 7.02748 25.207 7.29458 25.019 7.49868C24.9261 7.60197 24.8746 7.73603 24.8746 7.875C24.8746 8.01397 24.9261 8.14802 25.019 8.25131C25.1654 8.41063 25.2623 8.60899 25.2981 8.82233C25.3339 9.03567 25.307 9.25482 25.2208 9.45318C25.1345 9.65155 24.9925 9.82061 24.812 9.93986C24.6315 10.0591 24.4203 10.1234 24.204 10.125C24.1893 10.125 24.1297 10.1166 24.1157 10.116C24.027 10.1101 23.9383 10.1255 23.8568 10.1608C23.7753 10.1962 23.7035 10.2505 23.6472 10.3192C23.591 10.3879 23.552 10.4691 23.5335 10.556C23.515 10.6428 23.5175 10.7329 23.5408 10.8186L23.0627 11.1375ZM29.8127 31.7329L31.8298 33.75H27.7955L29.8127 31.7329Z" fill="#424242"/>
<path d="M29.8125 21.9375C29.6633 21.9375 29.5202 21.9968 29.4148 22.1023C29.3093 22.2077 29.25 22.3508 29.25 22.5V24.75C29.25 24.8992 29.3093 25.0423 29.4148 25.1477C29.5202 25.2532 29.6633 25.3125 29.8125 25.3125C29.9617 25.3125 30.1048 25.2532 30.2102 25.1477C30.3157 25.0423 30.375 24.8992 30.375 24.75V22.5C30.375 22.3508 30.3157 22.2077 30.2102 22.1023C30.1048 21.9968 29.9617 21.9375 29.8125 21.9375Z" fill="#424242"/>
<path d="M18.0293 28.9457C17.9555 28.9402 17.8815 28.9494 17.8113 28.9726C17.7411 28.9958 17.6761 29.0326 17.6202 29.0809C17.5642 29.1293 17.5184 29.1882 17.4852 29.2542C17.452 29.3203 17.4322 29.3923 17.4268 29.466C17.3008 31.1962 16.0999 33.75 15.1875 33.75C14.6991 33.7485 14.2247 33.5864 13.8375 33.2887C13.7399 33.2149 13.6208 33.175 13.4983 33.175C13.3759 33.175 13.2568 33.2149 13.1591 33.2887C12.7728 33.5857 12.2998 33.7477 11.8125 33.75C10.8 33.75 9.56252 30.7372 9.56252 29.25C9.56252 28.6533 9.79957 28.081 10.2215 27.659C10.6435 27.237 11.2158 27 11.8125 27C12.3009 27.0015 12.7753 27.1636 13.1625 27.4612C13.2602 27.5351 13.3793 27.575 13.5017 27.575C13.6241 27.575 13.7432 27.5351 13.8409 27.4612C14.2891 27.1264 14.846 26.9705 15.403 27.0241C15.9599 27.0776 16.4769 27.3368 16.8531 27.7509C16.9552 27.8512 17.0918 27.9087 17.2349 27.9118C17.3779 27.9149 17.5168 27.8633 17.6232 27.7676C17.7296 27.6719 17.7955 27.5392 17.8075 27.3966C17.8195 27.254 17.7767 27.1121 17.6878 27C17.373 26.648 16.9878 26.3659 16.5571 26.1722C16.1264 25.9784 15.6598 25.8771 15.1875 25.875C14.7823 25.8764 14.3809 25.9527 14.0035 26.1C13.9614 25.8319 13.8945 25.5683 13.8038 25.3125H15.1875C15.9332 25.3116 16.648 25.015 17.1753 24.4877C17.7025 23.9605 17.9991 23.2456 18 22.5C18 22.3508 17.9408 22.2077 17.8353 22.1022C17.7298 21.9968 17.5867 21.9375 17.4375 21.9375H15.75C15.1364 21.9392 14.5403 22.1417 14.0527 22.5142C13.5651 22.8867 13.213 23.4086 13.05 24.0002C12.7835 23.6755 12.4712 23.3913 12.123 23.1564C12.0616 23.1154 11.9926 23.0869 11.9202 23.0726C11.8477 23.0582 11.7731 23.0583 11.7007 23.0728C11.6282 23.0872 11.5593 23.1158 11.4979 23.1569C11.4365 23.198 11.3838 23.2508 11.3428 23.3122C11.3018 23.3737 11.2733 23.4426 11.259 23.5151C11.2446 23.5876 11.2447 23.6622 11.2592 23.7346C11.2736 23.8071 11.3022 23.8759 11.3433 23.9373C11.3844 23.9987 11.4372 24.0514 11.4986 24.0924C12.1821 24.5481 12.6652 25.2481 12.8486 26.0488C12.5148 25.9357 12.165 25.877 11.8125 25.875C11.6239 25.8761 11.4358 25.8931 11.25 25.9256V25.2163C11.2516 24.6378 11.1384 24.0646 10.917 23.5301C10.6956 22.9956 10.3704 22.5103 9.96021 22.1023C9.65475 21.7986 9.4126 21.4372 9.24778 21.0392C9.08296 20.6412 8.99874 20.2145 9.00002 19.7837V17.4375C9.1492 17.4375 9.29228 17.3782 9.39777 17.2727C9.50325 17.1673 9.56252 17.0242 9.56252 16.875V14.625C9.56252 14.4758 9.50325 14.3327 9.39777 14.2272C9.29228 14.1218 9.1492 14.0625 9.00002 14.0625H3.93752C3.78833 14.0625 3.64526 14.1218 3.53977 14.2272C3.43428 14.3327 3.37502 14.4758 3.37502 14.625V16.875C3.37502 17.0242 3.43428 17.1673 3.53977 17.2727C3.64526 17.3782 3.78833 17.4375 3.93752 17.4375V19.7837C3.93879 20.2145 3.85458 20.6412 3.68976 21.0392C3.52494 21.4372 3.28279 21.7986 2.97733 22.1023C2.56712 22.5103 2.24191 22.9956 2.02051 23.5301C1.79912 24.0646 1.68594 24.6378 1.68752 25.2163V34.3125C1.68752 34.4617 1.74678 34.6048 1.85227 34.7102C1.95776 34.8157 2.10083 34.875 2.25002 34.875H8.43752C8.5867 34.875 8.72978 34.8157 8.83527 34.7102C8.94075 34.6048 9.00002 34.4617 9.00002 34.3125C9.00002 34.1633 8.94075 34.0202 8.83527 33.9147C8.72978 33.8093 8.5867 33.75 8.43752 33.75H2.81252V30.9375H8.70358C9.18452 32.7341 10.2926 34.875 11.8125 34.875C12.4062 34.875 12.989 34.7155 13.5 34.4132C14.011 34.7155 14.5938 34.875 15.1875 34.875C17.1113 34.875 18.4174 31.356 18.5496 29.5481C18.555 29.4744 18.5459 29.4003 18.5227 29.3301C18.4995 29.2599 18.4626 29.195 18.4143 29.139C18.366 29.0831 18.3071 29.0372 18.241 29.004C18.175 28.9709 18.103 28.951 18.0293 28.9457ZM15.75 23.0625H16.7788C16.6621 23.3913 16.4465 23.6759 16.1616 23.8773C15.8767 24.0787 15.5364 24.1871 15.1875 24.1875H14.1587C14.2755 23.8587 14.4911 23.5741 14.776 23.3727C15.0609 23.1713 15.4011 23.0629 15.75 23.0625ZM4.50002 15.1875H8.43752V16.3125H4.50002V15.1875ZM2.81252 29.8125V27H7.87502C8.0242 27 8.16728 26.9407 8.27277 26.8352C8.37825 26.7298 8.43752 26.5867 8.43752 26.4375C8.43752 26.2883 8.37825 26.1452 8.27277 26.0397C8.16728 25.9343 8.0242 25.875 7.87502 25.875H2.81252V25.2163C2.81124 24.7855 2.89545 24.3588 3.06027 23.9608C3.22509 23.5628 3.46725 23.2014 3.7727 22.8977C4.18291 22.4897 4.50812 22.0044 4.72952 21.4699C4.95092 20.9354 5.0641 20.3622 5.06252 19.7837V17.4375H7.87502V19.7837C7.87331 20.3623 7.98644 20.9354 8.20784 21.4699C8.42924 22.0045 8.75452 22.4898 9.16483 22.8977C9.47029 23.2014 9.71244 23.5628 9.87726 23.9608C10.0421 24.3588 10.1263 24.7855 10.125 25.2163V26.3317C9.61263 26.6276 9.18701 27.0529 8.89083 27.5651C8.59465 28.0773 8.43832 28.6583 8.43752 29.25C8.44019 29.4382 8.45409 29.626 8.47914 29.8125H2.81252Z" fill="#424242"/>
<path d="M23.0625 15.1875H18C17.8508 15.1875 17.7077 15.2468 17.6023 15.3522C17.4968 15.4577 17.4375 15.6008 17.4375 15.75C17.4375 15.8992 17.4968 16.0423 17.6023 16.1477C17.7077 16.2532 17.8508 16.3125 18 16.3125H23.0625C23.2117 16.3125 23.3548 16.2532 23.4602 16.1477C23.5657 16.0423 23.625 15.8992 23.625 15.75C23.625 15.6008 23.5657 15.4577 23.4602 15.3522C23.3548 15.2468 23.2117 15.1875 23.0625 15.1875Z" fill="#424242"/>
<path d="M23.0625 18H19.6875C19.5383 18 19.3952 18.0593 19.2898 18.1647C19.1843 18.2702 19.125 18.4133 19.125 18.5625C19.125 18.7117 19.1843 18.8548 19.2898 18.9602C19.3952 19.0657 19.5383 19.125 19.6875 19.125H23.0625C23.2117 19.125 23.3548 19.0657 23.4602 18.9602C23.5657 18.8548 23.625 18.7117 23.625 18.5625C23.625 18.4133 23.5657 18.2702 23.4602 18.1647C23.3548 18.0593 23.2117 18 23.0625 18Z" fill="#424242"/>
</svg>
