<svg width="31" height="30" viewBox="0 0 31 30" fill="none" xmlns="http://www.w3.org/2000/svg">
<path d="M31 16.433C31 14.3997 29.9445 12.458 28.1765 11.2392C27.816 10.9899 27.369 10.853 26.9185 10.853C26.3545 10.853 25.826 11.0637 25.438 11.4218C25.3655 11.3653 25.2995 11.3032 25.2245 11.2495C24.947 11.0515 24.614 10.9338 24.272 10.8853L24.4925 8.6209C24.4975 8.56673 24.5 8.51209 24.5 8.45746C24.5 7.46093 23.632 6.65026 22.565 6.65026H22.435C21.368 6.65026 20.5 7.46093 20.5 8.45746C20.5 8.51209 20.5025 8.56673 20.508 8.62137L20.7295 10.8955C20.4125 10.9516 20.106 11.066 19.847 11.2462C19.7575 11.3088 19.678 11.3807 19.592 11.4466C19.5475 11.4036 19.5005 11.3635 19.452 11.3247C19.4805 11.1692 19.5 11.0118 19.5 10.853C19.5 10.26 19.302 9.69261 18.935 9.21863C19.302 8.74465 19.5 8.17774 19.5 7.58421C19.5 5.98528 18.0515 4.68942 16.3255 4.78749C16.0045 3.92825 15.256 3.28055 14.336 3.03072C13.727 2.32138 12.809 1.92772 11.8255 1.98562C11.4115 0.877488 10.2905 0.112579 9 0.112579C7.9175 0.112579 6.932 0.653338 6.401 1.51491C5.077 1.55647 3.9325 2.42925 3.6045 3.61818C2.0565 4.15753 1 5.55706 1 7.11723C1 8.36826 1.659 9.51189 2.7495 10.203C2.585 10.5537 2.5 10.9329 2.5 11.32C2.5 12.1606 2.9 12.9418 3.5865 13.4709C3.529 13.6876 3.5 13.9057 3.5 14.1219C3.5 15.5527 4.655 16.737 6.14 16.9037L7.246 19.7966C6.6795 20.1865 6.197 20.6745 5.8255 21.2349L3.206 20.6913C3.1065 20.6698 3.004 20.6596 2.901 20.6596C2.1285 20.6596 1.5 21.2466 1.5 21.968V22.153C1.5 22.2837 1.527 22.4079 1.5655 22.5275H1.5C0.673 22.5275 0 23.156 0 23.9284C0 24.7008 0.673 25.3293 1.5 25.3293H1.5655C1.527 25.4489 1.5 25.5731 1.5 25.7038V25.8888C1.5 26.6103 2.1285 27.1972 2.901 27.1972C3.004 27.1972 3.1065 27.187 3.205 27.166L5.8255 26.6219C6.796 28.0854 8.5255 29.0651 10.5 29.0651H10.6175C10.8955 29.0651 11.177 29.0451 11.4535 29.0054L28.599 26.5421C29.99 26.3417 31 25.2429 31 23.9284C31 22.8772 30.3485 21.9727 29.3785 21.5464C30.4145 20.3906 31 18.9243 31 17.4145V16.433ZM24.6165 11.9915C26.109 13.0572 27 14.7546 27 16.5334V18.2486C27 19.2059 26.7445 20.1431 26.263 20.9794L22.2535 20.4032C22.0885 19.7256 22 19.0335 22 18.3387V16.4428C22 15.972 22.0505 15.5018 22.127 15.0358C22.2495 15.0456 22.3715 15.0558 22.5 15.0558C23.9255 15.0558 25 14.4534 25 13.6549C25 13.2141 24.6735 12.8228 24.108 12.5659L24.1815 11.8104C24.3375 11.8398 24.4875 11.8986 24.6165 11.9915ZM22.435 7.58421H22.5655C23.081 7.58421 23.5005 7.976 23.5005 8.45746C23.5005 8.48407 23.4995 8.51069 23.4965 8.53684L23.0425 13.2005L23.424 13.3149C23.862 13.4457 24 13.618 24 13.6549C24 13.7712 23.468 14.1219 22.5 14.1219C21.532 14.1219 21 13.7712 21 13.6549C21 13.618 21.138 13.4457 21.576 13.3145L21.9575 13.2001L21.5035 8.53684C21.501 8.51023 21.5 8.48361 21.5 8.45746C21.5 7.976 21.9195 7.58421 22.435 7.58421ZM20.82 11.8258L20.892 12.5659C20.3265 12.8228 20 13.2141 20 13.6549C20 14.1695 20.4495 14.5996 21.148 14.8424C21.0585 15.3725 21 15.9076 21 16.4428V18.3387C21 18.9803 21.066 19.621 21.194 20.251L18.2465 19.8274C18.086 19.3142 18 18.7851 18 18.2481V16.5329C18 14.757 18.914 13.06 20.445 11.9943C20.5565 11.9168 20.685 11.8599 20.82 11.8258ZM15.4165 19.4207C15.145 18.779 15 18.1071 15 17.4145V16.4325C15 14.6944 15.904 13.0338 17.4175 11.9897C17.6075 11.8589 17.8435 11.787 18.0815 11.787C18.3835 11.787 18.6615 11.9005 18.865 12.0905C17.686 13.2972 17 14.8821 17 16.5334V18.2486C17 18.73 17.0615 19.2063 17.173 19.6733L15.4165 19.4207ZM15.4635 5.38989L15.5545 5.8704L16.0645 5.7644C16.2195 5.73218 16.362 5.7163 16.5 5.7163C17.603 5.7163 18.5 6.55406 18.5 7.58421C18.5 8.075 18.296 8.53918 17.926 8.89128L17.582 9.21863L17.926 9.54598C18.296 9.89808 18.5 10.3623 18.5 10.853C18.5 10.8671 18.497 10.8811 18.497 10.8955C18.3615 10.8703 18.2235 10.853 18.0815 10.853C17.631 10.853 17.184 10.9899 16.8235 11.2388C15.9135 11.8659 15.197 12.6864 14.711 13.6105C14.5215 13.0595 14.3225 12.5318 14.1175 12.0308C14.58 9.74911 16.2955 8.4285 16.313 8.41496L16 8.05119L15.6875 7.68648C15.618 7.73831 14.2655 8.76986 13.506 10.6308C12.4655 8.39955 11.4835 6.95613 11.4205 6.8646L10.579 7.36987C10.5925 7.38901 11.355 8.50929 12.2425 10.2927C10.747 9.76686 9.0475 9.91209 8.95 9.92143L9.0495 10.8507C9.8015 10.7802 11.9315 10.8143 12.9265 11.7627C13.277 12.5673 13.6225 13.4494 13.9275 14.3946C12.4075 13.6666 10.594 13.6549 10.5 13.6549V14.5889C10.5235 14.5889 12.7495 14.6029 14.067 15.5812C14.026 15.8623 14 16.1462 14 16.433V17.415C14 18.0459 14.104 18.6628 14.297 19.2605L11.4535 18.8519C11.3035 18.8304 11.152 18.8159 11 18.8057C9.897 18.8057 9 17.9614 9 16.9242C9 16.7066 9.0465 16.4834 9.1375 16.2597L9.2835 15.9025L8.937 15.6979C8.3505 15.3514 8 14.7626 8 14.1219C8 13.7544 8.1155 13.3981 8.334 13.0908L8.6455 12.6537L8.1445 12.416C7.13 11.9341 6.5 10.9777 6.5 9.91909C6.5 8.67647 7.394 7.56973 8.6745 7.22744L8.985 7.14432L9.0315 6.84592C9.174 5.93578 10.0205 5.24933 11 5.24933C11.0185 5.24933 11.0365 5.25306 11.0545 5.2554C11.0895 5.26007 11.125 5.26427 11.1605 5.2666L11.519 5.29369L11.66 4.98455C11.9755 4.29436 12.6975 3.84839 13.5 3.84839C14.469 3.84839 15.2945 4.49656 15.4635 5.38989ZM6.8525 15.9898H6.5C5.397 15.9898 4.5 15.152 4.5 14.1219C4.5 13.9038 4.5465 13.6806 4.6375 13.4578L4.784 13.1006L4.4375 12.8961C3.8505 12.5496 3.5 11.9607 3.5 11.32C3.5 10.9525 3.6155 10.5962 3.834 10.2889L4.1455 9.85185L3.6445 9.61416C2.63 9.13224 2 8.17587 2 7.11723C2 5.87461 2.894 4.76787 4.174 4.42558L4.4845 4.34246L4.531 4.04406C4.674 3.13392 5.5205 2.44746 6.5 2.44746C6.519 2.44746 6.5375 2.4512 6.556 2.45353C6.59 2.45774 6.624 2.46194 6.659 2.46474L7.019 2.49276L7.1605 2.18222C7.4755 1.4925 8.1975 1.04653 9 1.04653C9.969 1.04653 10.7945 1.6947 10.9635 2.58802L11.0545 3.06854L11.5645 2.96254C11.7195 2.93032 11.862 2.91444 12 2.91444C12.23 2.91444 12.4485 2.96161 12.6575 3.02978C11.9225 3.23058 11.2895 3.68635 10.901 4.31677C9.577 4.35833 8.4325 5.23111 8.1045 6.42004C6.5565 6.95939 5.5 8.35892 5.5 9.91909C5.5 11.1701 6.159 12.3138 7.2495 13.0049C7.085 13.3556 7 13.7348 7 14.1219C7 14.9624 7.4 15.7437 8.0865 16.2732C8.029 16.4899 8 16.7075 8 16.9237C8 17.7442 8.378 18.4816 8.9765 18.9962C8.6795 19.0765 8.394 19.1806 8.12 19.3044L6.8525 15.9898ZM2.5 22.153V21.968C2.5 21.7336 2.743 21.5529 2.9885 21.6024L5.368 22.0965C5.31 22.2375 5.258 22.3808 5.2135 22.5275H2.901C2.68 22.5275 2.5 22.3594 2.5 22.153ZM1 23.9284C1 23.6711 1.2245 23.4614 1.5 23.4614H2.901H5.025C5.0105 23.6155 5 23.7706 5 23.9284C5 24.0862 5.0105 24.2413 5.0255 24.3954H2.901H1.5C1.2245 24.3954 1 24.1857 1 23.9284ZM2.9875 26.2544C2.7505 26.302 2.5 26.1227 2.5 25.8888V25.7038C2.5 25.4974 2.68 25.3293 2.901 25.3293H5.213C5.2575 25.476 5.31 25.6193 5.3675 25.7604L2.9875 26.2544ZM30 23.9284C30 24.7788 29.347 25.4895 28.4475 25.6189L11.3025 28.0822C11.0755 28.1148 10.845 28.1312 10.6175 28.1312H10.5C8.019 28.1312 6 26.2455 6 23.9284C6 21.6113 8.019 19.7256 10.5 19.7256H10.6175C10.845 19.7256 11.0755 19.742 11.302 19.7742L28.447 22.2375C29.347 22.3673 30 23.078 30 23.9284ZM30 17.4145C30 18.851 29.3775 20.2407 28.2945 21.2708L27.301 21.1279C27.7575 20.2323 28 19.2502 28 18.2481V16.5329C28 14.8733 27.323 13.2804 26.16 12.0719C26.362 11.8939 26.63 11.787 26.9185 11.787C27.157 11.787 27.3925 11.8589 27.5825 11.9906C29.096 13.0338 30 14.6949 30 16.433V17.4145Z" fill="#434343"/>
<path d="M10 21.5935H11V26.2633H10V21.5935Z" fill="#434343"/>
<path d="M14 21.5935H15V26.2633H14V21.5935Z" fill="#434343"/>
<path d="M18 21.5935H19V26.2633H18V21.5935Z" fill="#434343"/>
<path d="M22 22.5275H23V25.3293H22V22.5275Z" fill="#434343"/>
<path d="M26 22.9944H27V24.8624H26V22.9944Z" fill="#434343"/>
</svg>
