<?xml version="1.0" encoding="iso-8859-1"?>
<!-- Generator: Adobe Illustrator 19.0.0, SVG Export Plug-In . SVG Version: 6.00 Build 0)  -->
<svg version="1.1" id="Capa_1" xmlns="http://www.w3.org/2000/svg" xmlns:xlink="http://www.w3.org/1999/xlink" x="0px" y="0px"
	 viewBox="0 0 512 512" style="enable-background:new 0 0 512 512;" xml:space="preserve">
<g>
	<path style="fill:#307E45;" d="M210.859,60.479h16.329c23.215,0.026,42.016,18.87,41.99,42.094c0,0.078,0,0.164,0,0.242
		l-41.04-16.416l-17.28,51.839l-17.28-51.839l-50.543,16.848c1.901-3.629,3.888-7.171,5.962-10.713l6.48-11.232
		c7.543-12.891,21.349-20.822,36.288-20.822H210.859z"/>
	<path style="fill:#307E45;" d="M219.499,60.479h-17.28C202.254,27.095,229.314,0.035,262.698,0h8.64v17.28h-8.64
		C238.852,17.306,219.534,36.633,219.499,60.479z"/>
</g>
<path style="fill:#BA3637;" d="M396.444,489.536l-43.977-29.376c-102.037-67.918-142.904-197.793-98.149-311.9l11.923-30.585
	c1.84-4.743,2.834-9.772,2.938-14.861l-16.528-6.61c-7.042,100.784-44.547,197.05-107.532,276.045
	c9.608,17.574,21.038,34.084,34.119,49.247C228.726,478.97,300.818,512.009,376.659,512c4.579,0,9.158-0.086,13.737-0.346
	c6.67-0.38,11.768-6.1,11.379-12.77C401.559,495.109,399.589,491.644,396.444,489.536z"/>
<path style="fill:#D83D40;" d="M228.139,86.399l-17.28,51.839l-17.28-51.839l-50.543,16.848
	c-44.504,84.334-43.718,185.369,2.082,269.003c62.985-78.995,100.491-175.26,107.532-276.045L228.139,86.399z"/>
<g>
</g>
<g>
</g>
<g>
</g>
<g>
</g>
<g>
</g>
<g>
</g>
<g>
</g>
<g>
</g>
<g>
</g>
<g>
</g>
<g>
</g>
<g>
</g>
<g>
</g>
<g>
</g>
<g>
</g>
</svg>
