<svg height="512" viewBox="0 0 64 64" width="512" xmlns="http://www.w3.org/2000/svg"><g id="Flat"><g id="Stroke_copy_2" data-name="Stroke copy 2"><g><g><path d="m48 8a2.978 2.978 0 0 0 -4.368-2.656 3.986 3.986 0 0 0 -7.264 0 2.978 2.978 0 0 0 -4.024 4.024 3.972 3.972 0 0 0 -.965 6.632 3.991 3.991 0 1 0 5.911 5.269 2.989 2.989 0 0 0 5.52-2.288c.064 0 .125.019.19.019a2.988 2.988 0 0 0 2.221-5 2.95 2.95 0 0 0 .559-3.115 2.994 2.994 0 0 0 2.22-2.885z" fill="#a1d51c"/><path d="m46 16a3 3 0 0 1 -3 3c-.06 0-.13-.02-.19-.02a2.887 2.887 0 0 1 .19 1.02 3 3 0 0 1 -5.71 1.27 3.993 3.993 0 1 1 -5.91-5.27 3.971 3.971 0 0 1 .96-6.63 2.986 2.986 0 0 1 4.03-4.03 3.944 3.944 0 0 1 1.35-1.62 3.959 3.959 0 0 0 .66 5.28 3.991 3.991 0 1 0 5.91 5.27 3.012 3.012 0 0 0 1.7 1.55 1.087 1.087 0 0 1 .01.18z" fill="#7ab92d"/></g><path d="m36.044 18.63a1 1 0 0 1 -.879-1.474 9.628 9.628 0 0 0 .865-6.913 1 1 0 1 1 1.94-.486 11.628 11.628 0 0 1 -1.044 8.348 1 1 0 0 1 -.882.525z" fill="#5ba006"/><path d="m35.622 19.415a.988.988 0 0 1 -.474-.12 1 1 0 0 1 -.406-1.355l.423-.784a12.38 12.38 0 0 1 6.291-5.616 1 1 0 1 1 .744 1.86 10.37 10.37 0 0 0 -5.274 4.707l-.423.785a1 1 0 0 1 -.881.523z" fill="#5ba006"/><circle cx="50.5" cy="17.5" fill="#f89c8d" r="6.5"/><path d="m57 17.5a6.5 6.5 0 1 1 -7.97-6.33 6.508 6.508 0 0 0 6.47 5.83 6.431 6.431 0 0 0 1.47-.17c.02.22.03.45.03.67z" fill="#f8664f"/><g><path d="m31.929 22.59-10.392 6-11-19.053a4 4 0 0 1 1.463-5.464 8 8 0 0 1 10.929 2.927z" fill="#f9e109"/><path d="m31.93 22.59-10.39 6-11-19.05a4 4 0 0 1 1.46-5.47 6.245 6.245 0 0 1 .68-.35l2.86 4.94a7.983 7.983 0 0 0 10.24 3.28z" fill="#fcbc04"/></g><path d="m41 21-6-4-6 4-6-4-6 4-6-4v44h36v-44z" fill="#f7f754"/><path d="m47 50v11h-36v-44l6 4 6-4v9a24.006 24.006 0 0 0 24 24z" fill="#f9e109"/><path d="m47 17 6 4 6-4v44h-12z" fill="#fcbc04"/><path d="m59 17v44h-6v-40z" fill="#e59730"/><path d="m53 55-6 6h6 6z" fill="#f9e109"/><g><path d="m14 35.172v-5.172h-6v5.172a6.826 6.826 0 0 1 -2 4.828 6.826 6.826 0 0 0 -2 4.828v16.172h14v-16.172a6.826 6.826 0 0 0 -2-4.828 6.826 6.826 0 0 1 -2-4.828z" fill="#84d2f4"/><path d="m18 48.1v12.9h-14v-16.17a6.835 6.835 0 0 1 2-4.83 6.835 6.835 0 0 0 2-4.83v-5.17h6v2.01a3.163 3.163 0 0 0 -3 3.16 6.835 6.835 0 0 1 -2 4.83 6.835 6.835 0 0 0 -2 4.83 11.161 11.161 0 0 0 7.33 10.49 10.548 10.548 0 0 1 -.33-2.32 5 5 0 0 1 4-4.9z" fill="#57b7eb"/><path d="m7 26h8v4h-8z" fill="#d0d8da"/><path d="m4 47h14v7h-14z" fill="#d0d8da"/><g fill="#93999a"><path d="m10.27 52.73a10.317 10.317 0 0 0 1.53 1.27h-7.8v-7h3.22a11.086 11.086 0 0 0 3.05 5.73z"/><path d="m18 48.1v5.9h-3.92a7.565 7.565 0 0 1 -.08-1 5 5 0 0 1 4-4.9z"/><path d="m15 28v2h-8v-4h2.54a3.98 3.98 0 0 0 3.46 2z"/></g></g><g><path d="m27 47a4.956 4.956 0 0 0 -3 1.023 4.977 4.977 0 0 0 -8 3.977c0 2.761 2.239 9 5 9a4.956 4.956 0 0 0 3-1.023 4.956 4.956 0 0 0 3 1.023c2.761 0 5-6.239 5-9a5 5 0 0 0 -5-5z" fill="#f89c8d"/><path d="m31.2 55.93c-.9 2.55-2.44 5.07-4.2 5.07a4.98 4.98 0 0 1 -3-1.02 4.98 4.98 0 0 1 -3 1.02c-2.76 0-5-6.24-5-9a5 5 0 0 1 4.06-4.91 10 10 0 0 0 9.94 8.91 9.438 9.438 0 0 0 1.2-.07z" fill="#f8664f"/><path d="m27 45h-3a4 4 0 0 1 4-4h3a4 4 0 0 1 -4 4z" fill="#a1d51c"/><g fill="#7ab92d"><path d="m30.46 43a4.225 4.225 0 0 1 -.63.83 4.025 4.025 0 0 1 -2.83 1.17h-3a4.025 4.025 0 0 1 1.17-2.83 3.081 3.081 0 0 1 .44-.37 2.964 2.964 0 0 0 2.39 1.2z"/><path d="m24 49a1 1 0 0 1 -1-1v-.4a5.724 5.724 0 0 0 -2.555-4.773 1 1 0 1 1 1.11-1.664 7.722 7.722 0 0 1 3.445 6.442v.395a1 1 0 0 1 -1 1z"/></g></g><path d="m24.43 9.6-4.33 2.5a1 1 0 0 1 -1.365-.365 1 1 0 0 1 .365-1.365l4.334-2.5z" fill="#e59730"/><path d="m26.93 13.93-4.335 2.5a1 1 0 0 1 -1.365-.365 1 1 0 0 1 .37-1.365l4.334-2.5z" fill="#e59730"/><path d="m52 15a1 1 0 0 1 -.856-1.515 7.1 7.1 0 0 1 5.15-3.4l.572-.078a1 1 0 1 1 .27 1.982l-.571.078a5.111 5.111 0 0 0 -3.707 2.446 1 1 0 0 1 -.858.487z" fill="#a1d51c"/><g fill="#7ab92d"><path d="m41 29h-9a1 1 0 0 1 0-2h9a1 1 0 0 1 0 2z"/><path d="m41 34h-6a1 1 0 0 1 0-2h6a1 1 0 0 1 0 2z"/></g></g></g></g></svg>