<svg height="512" viewBox="0 0 64 64" width="512" xmlns="http://www.w3.org/2000/svg"><g id="Fill_Outline" data-name="Fill Outline"><g id="Stroke_copy" data-name="Stroke copy"><g><circle cx="50.5" cy="17.5" fill="#f89c8d" r="6.5"/><path d="m57 17.5a6.5 6.5 0 1 1 -7.97-6.33 6.508 6.508 0 0 0 6.47 5.83 6.431 6.431 0 0 0 1.47-.17c.02.22.03.45.03.67z" fill="#f8664f"/><g><path d="m48 8a2.978 2.978 0 0 0 -4.368-2.656 3.986 3.986 0 0 0 -7.264 0 2.978 2.978 0 0 0 -4.024 4.024 3.972 3.972 0 0 0 -.965 6.632 3.991 3.991 0 1 0 5.911 5.269 2.989 2.989 0 0 0 5.52-2.288c.064 0 .125.019.19.019a2.988 2.988 0 0 0 2.221-5 2.95 2.95 0 0 0 .559-3.115 2.994 2.994 0 0 0 2.22-2.885z" fill="#a1d51c"/><path d="m46 16a3 3 0 0 1 -3 3c-.06 0-.13-.02-.19-.02a2.887 2.887 0 0 1 .19 1.02 3 3 0 0 1 -5.71 1.27 3.993 3.993 0 1 1 -5.91-5.27 3.971 3.971 0 0 1 .96-6.63 2.986 2.986 0 0 1 4.03-4.03 3.944 3.944 0 0 1 1.35-1.62 3.959 3.959 0 0 0 .66 5.28 3.991 3.991 0 1 0 5.91 5.27 3.012 3.012 0 0 0 1.7 1.55 1.087 1.087 0 0 1 .01.18z" fill="#7ab92d"/></g><g><path d="m31.929 22.59-10.392 6-11-19.053a4 4 0 0 1 1.463-5.464 8 8 0 0 1 10.929 2.927z" fill="#fcbc04"/><path d="m31.93 22.59-10.39 6-11-19.05a4 4 0 0 1 1.46-5.47 6.245 6.245 0 0 1 .68-.35l2.86 4.94a7.983 7.983 0 0 0 10.24 3.28z" fill="#e59730"/></g><path d="m41 21-6-4-6 4-6-4-6 4-6-4v44h36v-44z" fill="#f7f754"/><path d="m47 50v11h-36v-44l6 4 6-4v9a24.006 24.006 0 0 0 24 24z" fill="#f9e109"/><path d="m47 17 6 4 6-4v44h-12z" fill="#fcbc04"/><path d="m59 17v44h-6v-40z" fill="#e59730"/><path d="m53 55-6 6h6 6z" fill="#f9e109"/><g><path d="m14 35.172v-5.172h-6v5.172a6.826 6.826 0 0 1 -2 4.828 6.826 6.826 0 0 0 -2 4.828v16.172h14v-16.172a6.826 6.826 0 0 0 -2-4.828 6.826 6.826 0 0 1 -2-4.828z" fill="#84d2f4"/><path d="m18 48.1v12.9h-14v-16.17a6.835 6.835 0 0 1 2-4.83 6.835 6.835 0 0 0 2-4.83v-5.17h6v2.01a3.163 3.163 0 0 0 -3 3.16 6.835 6.835 0 0 1 -2 4.83 6.835 6.835 0 0 0 -2 4.83 11.161 11.161 0 0 0 7.33 10.49 10.548 10.548 0 0 1 -.33-2.32 5 5 0 0 1 4-4.9z" fill="#57b7eb"/><path d="m7 26h8v4h-8z" fill="#d0d8da"/><path d="m4 47h14v7h-14z" fill="#d0d8da"/><g fill="#93999a"><path d="m10.27 52.73a10.317 10.317 0 0 0 1.53 1.27h-7.8v-7h3.22a11.086 11.086 0 0 0 3.05 5.73z"/><path d="m18 48.1v5.9h-3.92a7.565 7.565 0 0 1 -.08-1 5 5 0 0 1 4-4.9z"/><path d="m15 28v2h-8v-4h2.54a3.98 3.98 0 0 0 3.46 2z"/></g></g><g><path d="m27 47a4.956 4.956 0 0 0 -3 1.023 4.977 4.977 0 0 0 -8 3.977c0 2.761 2.239 9 5 9a4.956 4.956 0 0 0 3-1.023 4.956 4.956 0 0 0 3 1.023c2.761 0 5-6.239 5-9a5 5 0 0 0 -5-5z" fill="#f89c8d"/><path d="m31.2 55.93c-.9 2.55-2.44 5.07-4.2 5.07a4.98 4.98 0 0 1 -3-1.02 4.98 4.98 0 0 1 -3 1.02c-2.76 0-5-6.24-5-9a5 5 0 0 1 4.06-4.91 10 10 0 0 0 9.94 8.91 9.438 9.438 0 0 0 1.2-.07z" fill="#f8664f"/><path d="m27 44h-3a4 4 0 0 1 4-4h3a4 4 0 0 1 -4 4z" fill="#a1d51c"/><path d="m30.46 42a4.225 4.225 0 0 1 -.63.83 4.025 4.025 0 0 1 -2.83 1.17h-3a4.025 4.025 0 0 1 1.17-2.83 3.081 3.081 0 0 1 .44-.37 2.964 2.964 0 0 0 2.39 1.2z" fill="#7ab92d"/></g></g></g><g id="Outline_copy" data-name="Outline copy"><g fill="#464a51"><path d="m59 52a1 1 0 0 0 1-1v-34a1 1 0 0 0 -1.555-.832l-.518.345a7.477 7.477 0 0 0 -2.1-4.282 5.13 5.13 0 0 1 .734-.162l.571-.078a1 1 0 1 0 -.27-1.982l-.572.078a7.17 7.17 0 0 0 -2.354.755 7.363 7.363 0 0 0 -5.736-.468 3.959 3.959 0 0 0 .8-2.374 4 4 0 0 0 -4-4 3.814 3.814 0 0 0 -.927.114 4.981 4.981 0 0 0 -8.146 0 3.82 3.82 0 0 0 -.927-.114 4 4 0 0 0 -4 4 3.814 3.814 0 0 0 .114.927 4.96 4.96 0 0 0 -1.096 7.073 5.083 5.083 0 0 0 -.389.607l-4.829-8.373-1-1.734a9 9 0 0 0 -12.3-3.293 5.006 5.006 0 0 0 -1.83 6.83l1.143 1.979a1 1 0 0 0 1.732-1l-1.145-1.979a3 3 0 0 1 1.1-4.1 7 7 0 0 1 9.562 2.563l.5.865-3.463 2a1 1 0 0 0 1 1.733l3.464-2 1.5 2.6-3.464 2a1 1 0 0 0 .293 1.84l-4.447 2.962-3.068-5.313a1 1 0 1 0 -1.733 1l1.6 2.773-2.691-1.794a1 1 0 0 0 -1.553.834v5a1 1 0 0 0 2 0v-3.131l4.445 2.963a1 1 0 0 0 1.11 0l5.445-3.632 5.445 3.63a1 1 0 0 0 1.11 0l5.445-3.63 5.445 3.63a1 1 0 0 0 1.11 0l4.445-2.962v41.132h-13a1 1 0 0 0 0 2h26a1 1 0 0 0 1-1v-6a1 1 0 0 0 -2 0v3.586l-4-4v-5.586a1 1 0 0 0 -2 0v5.586l-4 4v-39.718l4 2.667v12.465a1 1 0 0 0 2 0v-12.465l4-2.666v32.131a1 1 0 0 0 1 1zm-6.908-39.763a7.216 7.216 0 0 0 -.949 1.248 1 1 0 1 0 1.714 1.03 5.156 5.156 0 0 1 1.1-1.289 5.489 5.489 0 0 1 2.043 4.274c0 .107-.017.209-.024.314l-2.976 1.986-5.445-3.63a1 1 0 0 0 -.555-.17 3.949 3.949 0 0 0 -.546-2 4.077 4.077 0 0 0 .225-.448 5.476 5.476 0 0 1 5.413-1.315zm-28.537 3.931a.982.982 0 0 0 -.282-.128l2.79-1.61 3.054 5.29-.117.08zm17.445 3.632-4.065-2.71a10.377 10.377 0 0 1 5.265-4.69 1 1 0 1 0 -.744-1.858 12.363 12.363 0 0 0 -3.179 1.88 11.639 11.639 0 0 0 -.307-3.663 1 1 0 1 0 -1.94.486 9.624 9.624 0 0 1 -.806 6.79.993.993 0 0 0 -.779.135l-3.382 2.255a2.981 2.981 0 0 1 .975-1.671 1 1 0 0 0 0-1.5 2.959 2.959 0 0 1 -1.038-2.254 3.007 3.007 0 0 1 1.76-2.723 1 1 0 0 0 .473-1.368 1.966 1.966 0 0 1 -.233-.909 2 2 0 0 1 2.909-1.767 1 1 0 0 0 1.368-.473 2.986 2.986 0 0 1 5.446 0 1 1 0 0 0 .583.53 1.012 1.012 0 0 0 .785-.057 1.989 1.989 0 1 1 1.428 3.686 1 1 0 0 0 -.667 1.337 2 2 0 0 1 .148.744 1.974 1.974 0 0 1 -.522 1.331 1 1 0 0 0 0 1.338 1.987 1.987 0 0 1 -1.449 3.331c-.026 0-.132-.015-.157-.016a.991.991 0 0 0 -1.022 1.249zm12 36.614 3.586 3.586h-7.172z"/><path d="m53 39a1 1 0 0 0 -1 1v4a1 1 0 0 0 2 0v-4a1 1 0 0 0 -1-1z"/><path d="m32.052 51.459a1 1 0 0 0 -1.071.925c-.224 3.076-2.359 7.616-3.981 7.616a3.958 3.958 0 0 1 -2.4-.82 1 1 0 0 0 -1.206 0 3.958 3.958 0 0 1 -2.394.82c-1.8 0-4-5.356-4-8a4 4 0 0 1 4-4 3.958 3.958 0 0 1 2.4.82 1 1 0 0 0 1.206 0 4 4 0 0 1 5.355.515 1 1 0 0 0 1.484-1.335 6 6 0 0 0 -4.445-2 5.848 5.848 0 0 0 -2.105.4 7.805 7.805 0 0 0 -.355-1.4h2.46a5.006 5.006 0 0 0 5-5 1 1 0 0 0 -1-1h-3a4.993 4.993 0 0 0 -4.8 3.667 7.711 7.711 0 0 0 -1.648-1.5 1 1 0 1 0 -1.11 1.664 5.714 5.714 0 0 1 2.4 3.478 5.84 5.84 0 0 0 -1.842-.309 6 6 0 0 0 -1 .09v-1.261a7.778 7.778 0 0 0 -2.293-5.536 5.789 5.789 0 0 1 -1.707-4.122v-4.171a1 1 0 0 0 1-1v-4a1 1 0 0 0 -1-1h-9a1 1 0 0 0 -1 1v4a1 1 0 0 0 1 1v4.171a5.789 5.789 0 0 1 -1.707 4.122 7.778 7.778 0 0 0 -2.293 5.536v16.171a1 1 0 0 0 1 1h11a1 1 0 0 0 0-2h-10v-5h10.473c.855 3.194 2.825 7 5.527 7a5.893 5.893 0 0 0 3-.821 5.89 5.89 0 0 0 3 .821c3.42 0 5.742-6.256 5.977-9.47a1 1 0 0 0 -.925-1.071zm-4.052-10.459h1.829a3.006 3.006 0 0 1 -2.829 2h-1.829a3.006 3.006 0 0 1 2.829-2zm-20-14h7v2h-7zm-3 26v-5h9a1 1 0 0 0 0-2h-9v-1.171a5.789 5.789 0 0 1 1.707-4.122 7.778 7.778 0 0 0 2.293-5.536v-4.171h5v4.171a7.774 7.774 0 0 0 2.293 5.536 5.789 5.789 0 0 1 1.707 4.122v1.983a6 6 0 0 0 -3 5.188 8.407 8.407 0 0 0 .074 1z"/><path d="m41 27h-9a1 1 0 0 0 0 2h9a1 1 0 0 0 0-2z"/><path d="m41 32h-6a1 1 0 0 0 0 2h6a1 1 0 0 0 0-2z"/></g></g></g></svg>