<?xml version="1.0" encoding="iso-8859-1"?>
<!-- Generator: Adobe Illustrator 19.0.0, SVG Export Plug-In . SVG Version: 6.00 Build 0)  -->
<svg version="1.1" id="Capa_1" xmlns="http://www.w3.org/2000/svg" xmlns:xlink="http://www.w3.org/1999/xlink" x="0px" y="0px"
	 viewBox="0 0 512 512" style="enable-background:new 0 0 512 512;" xml:space="preserve">
<polygon style="fill:#88B337;" points="8.61,10.103 144.836,10.103 119.236,146.637 34.21,146.637 "/>
<g>
	<polygon style="fill:#6B962A;" points="36.489,157.278 8.61,10.103 25.37,6.963 53.257,154.138 	"/>
	<polygon style="fill:#6B962A;" points="117.487,157.807 100.719,154.667 128.077,6.963 144.836,10.103 	"/>
	<rect x="68.19" style="fill:#6B962A;" width="17.067" height="119.467"/>
</g>
<g>
	<rect x="213.257" y="384" style="fill:#88B337;" width="85.333" height="119.467"/>
	<path style="fill:#88B337;" d="M315.657,136.533V102.4c0-51.84,42.027-93.867,93.867-93.867l0,0
		c51.84,0,93.867,42.027,93.867,93.867v213.333c0,27.162-10.795,53.205-29.995,72.405l-63.872,63.881l-63.872-63.881l-0.051-0.043
		c-19.132-19.021-29.901-44.877-29.943-71.851V136.533z"/>
</g>
<path style="fill:#7BA825;" d="M409.523,8.533c-8.661,0.017-17.271,1.237-25.6,3.627c40.363,11.443,68.233,48.282,68.267,90.24
	v213.333c0,27.162-10.795,53.205-29.995,72.405l-38.272,38.281l25.6,25.6l63.872-63.881c19.2-19.2,29.995-45.244,29.995-72.405
	V102.4C503.39,50.56,461.363,8.533,409.523,8.533z"/>
<polygon style="fill:#6B962A;" points="466.756,168.166 454.69,156.1 418.057,192.734 418.057,140.066 466.756,91.366 454.69,79.3 
	418.057,115.934 418.057,59.733 400.99,59.733 400.99,115.934 364.356,79.3 352.29,91.366 400.99,140.066 400.99,192.734 
	366.857,158.601 354.79,170.667 400.99,216.866 400.99,512 418.057,512 418.057,370.466 466.756,321.766 454.69,309.7 
	418.057,346.334 418.057,293.666 466.756,244.966 454.69,232.9 418.057,269.534 418.057,216.866 "/>
<g>
	<rect x="264.457" y="460.8" style="fill:#638724;" width="34.133" height="17.067"/>
	<rect x="213.257" y="443.733" style="fill:#638724;" width="25.6" height="17.067"/>
</g>
<path style="fill:#F46B27;" d="M116.164,145.067H37.282c-14.14,0.009-25.6,11.469-25.591,25.609c0,1.007,0.06,2.022,0.179,3.021
	l36.224,304.35c1.894,15.812,16.247,27.093,32.06,25.199c13.21-1.579,23.62-11.989,25.199-25.199l36.412-307.379
	C141.764,156.527,130.304,145.067,116.164,145.067z"/>
<path style="fill:#E85925;" d="M116.164,145.067H76.723c14.14,0,25.6,11.46,25.6,25.6L65.911,478.046
	c-0.811,6.716-3.968,12.919-8.909,17.536c11.529,10.931,29.73,10.445,40.653-1.084c4.275-4.506,6.972-10.283,7.697-16.452
	l36.412-307.379C141.764,156.527,130.304,145.067,116.164,145.067z"/>
<g>
	<polygon style="fill:#DE4C3C;" points="59.657,187.733 13.534,187.733 15.565,204.8 59.657,204.8 	"/>
	<polygon style="fill:#DE4C3C;" points="51.123,238.933 19.635,238.933 21.666,256 51.123,256 	"/>
	<polygon style="fill:#DE4C3C;" points="68.19,341.333 31.821,341.333 33.852,358.4 68.19,358.4 	"/>
	<polygon style="fill:#DE4C3C;" points="76.723,392.533 76.723,409.6 113.459,409.6 115.482,392.533 	"/>
	<polygon style="fill:#DE4C3C;" points="68.19,443.733 44.015,443.733 46.046,460.8 68.19,460.8 	"/>
	<rect x="76.723" y="187.733" style="fill:#DE4C3C;" width="25.6" height="17.067"/>
</g>
<path style="fill:#7BA825;" d="M213.257,392.533v32.341c26.778,13.764,58.556,13.764,85.333,0v-32.341H213.257z"/>
<g>
	<path style="fill:#6B962A;" d="M381.073,233.813c11.366-40.798-12.493-83.089-53.291-94.455
		c-25.259-7.04-52.361-0.683-71.859,16.845c-31.428-28.365-79.898-25.873-108.262,5.555c-17.63,19.541-24.013,46.763-16.887,72.098
		c-40.678,12.015-63.906,54.733-51.891,95.411s54.733,63.906,95.411,51.891c1.92-0.563,3.814-1.212,5.683-1.92
		c30.251,41.967,88.789,51.465,130.748,21.214c8.166-5.888,15.326-13.047,21.214-21.214c39.671,15.01,84.002-4.983,99.004-44.655
		c15.002-39.671-4.983-84.002-44.655-99.004C384.572,234.923,382.831,234.334,381.073,233.813z"/>
	<path style="fill:#6B962A;" d="M128.777,379.238c-0.282,0.102-0.589,0.179-0.853,0.282c0.529,0.188,1.041,0.401,1.579,0.572
		C129.229,379.802,128.964,379.537,128.777,379.238z"/>
</g>
<path style="fill:#648F24;" d="M381.073,233.813c11.435-40.721-12.305-83.004-53.035-94.438c-15.3-4.292-31.556-3.729-46.515,1.63
	c38.084,13.329,59.255,53.956,48.35,92.809c40.499,12.612,63.104,55.663,50.5,96.162c-7.185,23.083-24.823,41.429-47.599,49.527
	c39.723,14.882,83.985-5.248,98.867-44.971c14.882-39.723-5.248-83.985-44.971-98.867
	C384.828,234.982,382.959,234.359,381.073,233.813z"/>
<g>
	<rect x="247.39" y="375.467" style="fill:#638724;" width="17.067" height="17.067"/>
	<rect x="247.39" y="307.2" style="fill:#638724;" width="17.067" height="17.067"/>
	<rect x="213.257" y="324.267" style="fill:#638724;" width="17.067" height="17.067"/>
	<rect x="213.257" y="358.4" style="fill:#638724;" width="17.067" height="17.067"/>
	<rect x="281.523" y="358.4" style="fill:#638724;" width="17.067" height="17.067"/>
	<rect x="196.19" y="238.933" style="fill:#638724;" width="17.067" height="17.067"/>
	<rect x="196.19" y="170.667" style="fill:#638724;" width="17.067" height="17.067"/>
	<rect x="162.057" y="187.733" style="fill:#638724;" width="17.067" height="17.067"/>
	<rect x="298.59" y="238.933" style="fill:#638724;" width="17.067" height="17.067"/>
	<rect x="264.457" y="187.733" style="fill:#638724;" width="17.067" height="17.067"/>
	<rect x="332.723" y="187.733" style="fill:#638724;" width="17.067" height="17.067"/>
	<rect x="264.457" y="221.867" style="fill:#638724;" width="17.067" height="17.067"/>
	<rect x="298.59" y="204.8" style="fill:#638724;" width="17.067" height="17.067"/>
	<rect x="144.99" y="264.533" style="fill:#638724;" width="17.067" height="17.067"/>
	<rect x="110.857" y="281.6" style="fill:#638724;" width="17.067" height="17.067"/>
	<rect x="110.857" y="315.733" style="fill:#638724;" width="17.067" height="17.067"/>
	<rect x="179.123" y="315.733" style="fill:#638724;" width="17.067" height="17.067"/>
	<rect x="144.99" y="298.667" style="fill:#638724;" width="17.067" height="17.067"/>
	<rect x="349.79" y="332.8" style="fill:#638724;" width="17.067" height="17.067"/>
	<rect x="349.79" y="264.533" style="fill:#638724;" width="17.067" height="17.067"/>
	<rect x="383.923" y="281.6" style="fill:#638724;" width="17.067" height="17.067"/>
	<rect x="315.657" y="315.733" style="fill:#638724;" width="17.067" height="17.067"/>
	<rect x="383.923" y="315.733" style="fill:#638724;" width="17.067" height="17.067"/>
</g>
<g>
</g>
<g>
</g>
<g>
</g>
<g>
</g>
<g>
</g>
<g>
</g>
<g>
</g>
<g>
</g>
<g>
</g>
<g>
</g>
<g>
</g>
<g>
</g>
<g>
</g>
<g>
</g>
<g>
</g>
</svg>
